<?xml version="1.0" encoding="utf-8"?>
<!-- Generator: Adobe Illustrator 24.1.0, SVG Export Plug-In . SVG Version: 6.00 Build 0)  -->
<svg version="1.1" id="Calque_1" xmlns="http://www.w3.org/2000/svg" xmlns:xlink="http://www.w3.org/1999/xlink" x="0px" y="0px"
	 viewBox="0 0 300 300" style="enable-background:new 0 0 300 300;" xml:space="preserve">
<style type="text/css">
	.st0{fill:#5AB88F;}
	.st1{fill:#E73452;}
</style>
<g>
	<path class="st0" d="M172.76,175.49c-4.46,3.65-10.42,5.47-17.86,5.47c-4.32,0-8.26-0.86-11.83-2.57
		c-3.57-1.71-6.66-4.09-9.26-7.14c-2.6-3.05-4.61-6.7-6.03-10.94c-1.41-4.24-2.12-8.89-2.12-13.95v-0.45c0-4.61,0.71-9,2.12-13.17
		c1.41-4.16,3.39-7.81,5.91-10.94c2.53-3.12,5.58-5.58,9.15-7.37s7.59-2.68,12.05-2.68c7.14,0,12.91,1.75,17.3,5.25
		c4.38,3.5,8.07,8.07,11.05,13.73l43.08-25.22c-3.28-5.95-7.18-11.42-11.72-16.4c-4.54-4.98-9.75-9.26-15.62-12.83
		c-5.88-3.57-12.42-6.36-19.64-8.37c-7.22-2.01-15.14-3.01-23.77-3.01c-11.61,0-22.47,2.05-32.59,6.14
		c-10.12,4.09-18.93,9.79-26.44,17.07C89.03,95.4,83.15,104.03,78.91,114c-4.24,9.97-6.36,20.76-6.36,32.36v0.45
		c0,12.05,2.19,23.07,6.58,33.03c4.38,9.97,10.3,18.52,17.74,25.67c7.44,7.14,16.03,12.65,25.77,16.52s20.05,5.8,30.91,5.8
		c9.67,0,18.34-1.12,26-3.35c7.66-2.23,14.51-5.25,20.53-9.04c6.03-3.79,11.27-8.26,15.74-13.39c4.46-5.13,8.33-10.6,11.61-16.4
		l-43.08-24.33C181.1,167.12,177.23,171.85,172.76,175.49z"/>
	<g>
		<path class="st1" d="M262.73,235.1H37.27c-3.14,0-5.68-2.54-5.68-5.68c0-3.14,2.54-5.68,5.68-5.68h225.45
			c3.14,0,5.68,2.54,5.68,5.68C268.41,232.56,265.86,235.1,262.73,235.1z"/>
	</g>
</g>
</svg>
