<?xml version="1.0" encoding="UTF-8" standalone="no"?>
<!-- Created with Inkscape (http://www.inkscape.org/) -->

<svg
   xmlns:dc="http://purl.org/dc/elements/1.1/"
   xmlns:cc="http://creativecommons.org/ns#"
   xmlns:rdf="http://www.w3.org/1999/02/22-rdf-syntax-ns#"
   xmlns:svg="http://www.w3.org/2000/svg"
   xmlns="http://www.w3.org/2000/svg"
   xmlns:sodipodi="http://sodipodi.sourceforge.net/DTD/sodipodi-0.dtd"
   xmlns:inkscape="http://www.inkscape.org/namespaces/inkscape"
   width="150mm"
   height="150mm"
   viewBox="0 0 150 150"
   version="1.1"
   id="svg431"
   inkscape:version="0.92.5 (2060ec1f9f, 2020-04-08)"
   sodipodi:docname="logo-eelv.svg">
  <defs
     id="defs425">
    <clipPath
       clipPathUnits="userSpaceOnUse"
       id="clipPath50">
      <path
         d="M 192.208,78.627 H 403.066 V 191.339 H 192.208 Z"
         id="path48"
         inkscape:connector-curvature="0" />
    </clipPath>
  </defs>
  <sodipodi:namedview
     id="base"
     pagecolor="#ffffff"
     bordercolor="#666666"
     borderopacity="1.0"
     inkscape:pageopacity="0.0"
     inkscape:pageshadow="2"
     inkscape:zoom="0.49497475"
     inkscape:cx="28.616785"
     inkscape:cy="254.0875"
     inkscape:document-units="mm"
     inkscape:current-layer="layer1"
     showgrid="false"
     inkscape:pagecheckerboard="true"
     fit-margin-top="0"
     fit-margin-left="0"
     fit-margin-right="0"
     fit-margin-bottom="0"
     inkscape:window-width="1855"
     inkscape:window-height="1056"
     inkscape:window-x="65"
     inkscape:window-y="24"
     inkscape:window-maximized="1" />
  <metadata
     id="metadata428">
    <rdf:RDF>
      <cc:Work
         rdf:about="">
        <dc:format>image/svg+xml</dc:format>
        <dc:type
           rdf:resource="http://purl.org/dc/dcmitype/StillImage" />
        <dc:title></dc:title>
      </cc:Work>
    </rdf:RDF>
  </metadata>
  <g
     inkscape:label="Calque 1"
     inkscape:groupmode="layer"
     id="layer1"
     transform="translate(-49.741534,-50.464477)">
    <path
       style="fill:#ffffff;fill-opacity:1;fill-rule:nonzero;stroke:none;stroke-width:0.35277781"
       d="m 89.727342,117.25965 c 0.03595,0.13731 -2.953441,4.71085 -3.590085,10.27195 -2.516522,-5.22337 -6.979043,-8.73553 -6.992669,-8.87892 l -0.0041,-9.9e-4 c 0.0819,0.12462 -1.251933,5.77839 0.178324,11.50603 -5.773349,-5.68609 -14.50284,-7.1908 -14.597747,-7.36566 l -0.0051,0.002 c 0.176921,0.10238 1.454701,9.23207 7.311629,15.15622 -9.520774,-2.92493 -19.949385,0.69005 -20.160716,0.57576 l -0.0041,0.004 c 0.210658,-0.002 5.760793,6.09149 13.603194,8.98693 -7.961163,2.24929 -13.990407,7.74263 -14.19424,7.72945 l -9.87e-4,0.005 c 0.200324,-0.0894 8.643697,3.3974 17.476576,2.16445 -8.489001,5.67847 -12.426609,16.2373 -12.655487,16.32913 l 0.0021,0.006 c 0.140998,-0.17365 9.161618,-0.62499 16.765284,-5.36424 -3.844712,7.73482 -3.729038,16.35318 -3.874399,16.50848 l 0.0041,9.8e-4 c 0.06888,-0.22888 9.416453,-5.36198 13.858976,-14.22685 0.0415,-0.0829 0.0788,-0.17188 0.11821,-0.25781 -0.840125,7.57848 3.028804,14.89217 2.966431,15.06654 l 0.003,0.002 c -0.02954,-0.18466 5.135959,-6.58479 5.702562,-14.2024 1.445708,2.50309 3.387658,4.16394 3.380163,4.24125 h 0.0041 c -0.05566,-0.10155 2.501455,-5.06668 1.209604,-9.60244 -0.400009,-1.40245 -2.022247,-3.00348 -3.698105,-2.66886 h -0.001 c -1.225936,0.24498 -2.017346,1.43705 -2.28571,2.62506 -0.615428,-0.81592 -1.407137,-1.39816 -2.340741,-1.49495 -1.690147,-0.17416 -3.219246,1.29404 -4.102664,3.03064 0.27711,-2.20044 -0.138393,-4.4289 -1.663077,-5.33469 l 10e-4,-9.8e-4 c -1.006103,-0.59741 -2.2718,-0.48486 -3.519772,0.0397 0.614647,-1.69399 0.684229,-3.45812 -0.244569,-4.74772 h 0.001 c -0.913613,-1.2679 -2.554331,-1.752 -4.304435,-1.7018 1.93587,-1.25677 3.454843,-3.15423 3.134574,-5.06363 l 0.0021,-9.9e-4 c -0.188084,-1.11777 -0.973435,-2.00925 -2.036047,-2.66173 1.321946,-0.61496 2.363685,-1.56017 2.699443,-2.83598 l 10e-4,9.8e-4 c 0.426231,-1.62547 -0.414709,-3.32436 -1.752754,-4.67945 1.768774,0.45463 3.66761,0.32002 4.904652,-0.86923 l 0.001,0.002 c 1.074149,-1.03403 1.365366,-2.59131 1.162727,-4.14445 0.991359,0.805 2.155574,1.26185 3.195717,0.90695 l 0.0021,9.9e-4 c 0.962218,-0.32876 1.571272,-1.26768 1.870962,-2.38558 0.655094,0.91399 1.531672,1.57038 2.531301,1.57646 l 0.001,9.8e-4 c 1.092479,0.006 2.031895,-0.76608 2.694349,-1.80574 0.219049,1.16086 0.814423,2.236 1.856694,2.70047 l 0.001,9.9e-4 c 1.313599,0.5842 2.863292,-0.008 3.971207,-0.97422 -0.763237,1.04652 -1.077868,2.8958 -0.05913,3.91721 1.07551,1.07689 3.082343,0.66994 4.079233,-0.19056 3.23137,-2.78406 3.81958,-7.78706 3.9121,-7.83644 l -0.002,-0.002 c -0.0449,0.0853 -4.2925,0.60613 -7.12513,3.23648 0.120927,-0.16629 0.231656,-0.33509 0.322012,-0.50544 2.797278,-5.26412 1.188728,-12.02825 1.281948,-12.13886 l -0.002,-0.002 c -0.0167,0.12684 -4.727887,2.74861 -7.208802,7.22085 -0.212518,-6.24122 -3.818586,-11.72223 -3.780626,-11.87085 z m 26.263778,10.36876 c -0.9454,0 -1.79257,0.16255 -2.54251,0.48813 -0.74992,0.32488 -1.38983,0.76758 -1.91785,1.32272 -0.52869,0.55583 -0.93295,1.20318 -1.21469,1.94127 -0.28175,0.7381 -0.4229,1.52008 -0.4229,2.34583 0,1.09569 0.16519,2.05712 0.49425,2.88288 0.32904,0.82645 0.77847,1.5169 1.34614,2.07274 0.56837,0.55582 1.23091,0.97509 1.98917,1.25545 0.75828,0.28317 1.57011,0.42494 2.43551,0.42494 0.42089,0 0.86312,-0.0305 1.32783,-0.0898 0.46469,-0.0598 0.92933,-0.16761 1.39404,-0.32201 0.46331,-0.15443 0.91702,-0.37032 1.35736,-0.64301 0.44105,-0.27482 0.85182,-0.62907 1.23304,-1.06593 l -1.07203,-1.32272 c -0.15096,-0.2149 -0.3739,-0.32099 -0.66748,-0.32099 -0.22192,0 -0.43413,0.0509 -0.63588,0.15388 -0.20314,0.10364 -0.42639,0.21884 -0.66848,0.34546 -0.2421,0.12799 -0.51721,0.24251 -0.82747,0.34545 -0.30888,0.10291 -0.67777,0.15489 -1.1077,0.15489 -0.8021,0 -1.45758,-0.23163 -1.96471,-0.69703 -0.50854,-0.46541 -0.82161,-1.21259 -0.94058,-2.24494 h 7.12208 c 0.16628,0 0.30355,-0.0203 0.41068,-0.0591 0.1071,-0.0404 0.19178,-0.11128 0.25579,-0.21502 0.0633,-0.10301 0.1071,-0.24242 0.13145,-0.41576 0.0228,-0.17531 0.0358,-0.40177 0.0358,-0.68073 0,-0.88905 -0.13658,-1.68498 -0.41067,-2.38761 -0.27341,-0.70261 -0.65501,-1.29641 -1.14337,-1.78128 -0.48906,-0.48418 -1.07244,-0.85276 -1.75071,-1.10669 -0.67898,-0.25323 -1.42787,-0.38112 -2.24598,-0.38112 z m 23.19238,2.12165 c -0.55165,0 -1.06177,0.16739 -1.52855,0.5034 -0.46471,0.33393 -0.88629,0.79252 -1.26056,1.37062 l -0.16815,-0.95586 c -0.0271,-0.13148 -0.0577,-0.2438 -0.0937,-0.33629 -0.0356,-0.0911 -0.0887,-0.16473 -0.15693,-0.22113 -0.0689,-0.0562 -0.15454,-0.096 -0.2568,-0.1233 -0.10166,-0.0251 -0.22814,-0.0387 -0.37908,-0.0387 h -1.81493 v 10.21997 h 3.05611 v -6.26813 c 0.45914,-0.85428 1.09058,-1.28195 1.89338,-1.28195 0.22957,0 0.41935,0.0139 0.57168,0.0438 0.15027,0.0308 0.28274,0.0447 0.39336,0.0447 0.13146,0 0.23658,-0.0271 0.3159,-0.0836 0.0793,-0.0557 0.13222,-0.15302 0.15795,-0.29145 l 0.39437,-2.24698 c -0.28244,-0.22331 -0.65791,-0.33528 -1.12401,-0.33528 z m 18.55575,0.003 c -0.3548,0 -0.68118,0.0347 -0.98032,0.107 -0.29844,0.0724 -0.57816,0.17329 -0.83765,0.30264 -0.26019,0.12733 -0.50286,0.28009 -0.72964,0.45756 -0.2268,0.1767 -0.43761,0.37471 -0.63588,0.59106 l -0.22723,-0.75002 c -0.0521,-0.17044 -0.14208,-0.29897 -0.27006,-0.38316 -0.12869,-0.0849 -0.28724,-0.12841 -0.47793,-0.12841 h -1.89236 v 13.46359 l -9.9e-4,0.002 h 3.05509 V 139.491 c 0.29636,0.25671 0.62469,0.46037 0.98643,0.61142 0.36176,0.15236 0.8082,0.22725 1.34106,0.22725 0.65046,0 1.2429,-0.13532 1.77925,-0.40457 0.53566,-0.2692 0.99545,-0.64469 1.37877,-1.124 0.384,-0.47932 0.68382,-1.04526 0.89879,-1.69568 0.21294,-0.64976 0.31998,-1.35935 0.31998,-2.12879 0,-0.82087 -0.0937,-1.55551 -0.28228,-2.20316 -0.18712,-0.64699 -0.44477,-1.19437 -0.77243,-1.64168 -0.32975,-0.44662 -0.72138,-0.78831 -1.17495,-1.02413 -0.4522,-0.23647 -0.94472,-0.35463 -1.47761,-0.35463 z m -12.24583,0.0388 c -0.78123,0 -1.49456,0.12062 -2.13387,0.36482 -0.64071,0.24279 -1.19505,0.59163 -1.65698,1.04451 -0.4633,0.45426 -0.82154,1.00317 -1.07407,1.65085 -0.25391,0.64767 -0.37908,1.37406 -0.37908,2.18381 0,0.81461 0.12517,1.54753 0.37908,2.20215 0.25253,0.65323 0.61077,1.20978 1.07407,1.66613 0.46193,0.45636 1.01556,0.80777 1.65698,1.0547 0.63931,0.24705 1.35264,0.36788 2.13387,0.36788 0.77567,0 1.48135,-0.1209 2.11859,-0.36788 0.63722,-0.24557 1.1836,-0.59764 1.64066,-1.0547 0.45565,-0.45635 0.812,-1.0129 1.06592,-1.66613 0.25254,-0.65462 0.37907,-1.38754 0.37907,-2.20215 0,-0.80907 -0.12655,-1.53614 -0.37907,-2.18381 -0.25253,-0.64768 -0.61027,-1.19729 -1.06592,-1.65085 -0.45706,-0.45288 -1.00344,-0.80172 -1.64066,-1.04451 -0.63794,-0.24425 -1.34292,-0.36482 -2.11859,-0.36482 z m 21.8605,0 c -0.78193,0 -1.48212,0.13393 -2.10126,0.40455 -0.62055,0.26992 -1.14947,0.63392 -1.58564,1.09446 -0.43826,0.45982 -0.77377,0.99383 -1.00681,1.606 -0.23369,0.61149 -0.35056,1.25847 -0.35056,1.9423 0,0.90644 0.13624,1.70277 0.40965,2.3866 0.272,0.68245 0.64425,1.25418 1.11383,1.71403 0.46957,0.45981 1.01787,0.80568 1.64677,1.03942 0.62678,0.23309 1.2988,0.34953 2.01464,0.34953 0.34921,0 0.71484,-0.0243 1.09955,-0.0743 0.3854,-0.0502 0.76784,-0.13698 1.15254,-0.26497 0.38401,-0.12799 0.75878,-0.30615 1.124,-0.53295 0.36591,-0.22748 0.70563,-0.52145 1.02006,-0.88249 l -0.88657,-1.09343 c -0.12522,-0.17742 -0.30953,-0.26801 -0.55232,-0.26801 -0.18437,0 -0.36024,0.0438 -0.52786,0.12941 -0.16696,0.0849 -0.35164,0.18024 -0.55131,0.28534 -0.20104,0.10582 -0.4291,0.20077 -0.68581,0.28635 -0.25462,0.0856 -0.562,0.1284 -0.91612,0.1284 -0.66436,0 -1.20653,-0.19207 -1.62741,-0.57678 -0.42018,-0.384 -0.68017,-1.00344 -0.77956,-1.8577 h 5.89618 c 0.13702,0 0.25099,-0.017 0.33933,-0.0489 0.0898,-0.0334 0.15913,-0.0935 0.21196,-0.17833 0.0522,-0.0855 0.0881,-0.20049 0.10904,-0.34442 0.0188,-0.14541 0.0286,-0.33225 0.0286,-0.56251 0,-0.73532 -0.11185,-1.39435 -0.33933,-1.97594 -0.22749,-0.58156 -0.54285,-1.07316 -0.94772,-1.47455 -0.40348,-0.40001 -0.88666,-0.70534 -1.44806,-0.91612 -0.56209,-0.21002 -1.18148,-0.31488 -1.85975,-0.31488 z m -44.68603,0.15691 v 6.48517 c 0,0.5642 0.0763,1.08366 0.22725,1.55812 0.15095,0.47306 0.37385,0.88348 0.6695,1.23201 0.29566,0.34854 0.65907,0.61917 1.09038,0.81322 0.42993,0.19415 0.9251,0.29043 1.48373,0.29043 0.32904,0 0.63077,-0.0301 0.90695,-0.0927 0.27548,-0.0632 0.53312,-0.14834 0.77243,-0.2568 0.24001,-0.10854 0.46586,-0.23917 0.67664,-0.39438 0.21079,-0.15373 0.41423,-0.32639 0.61042,-0.51766 l 0.1875,0.59206 c 0.11895,0.34163 0.36879,0.51156 0.75,0.51156 h 1.89237 v -10.21997 h -3.05612 v 7.2831 c -0.27616,0.25043 -0.56177,0.44402 -0.85395,0.58185 -0.29148,0.13851 -0.60525,0.20688 -0.94057,0.20688 -0.44732,0 -0.78539,-0.13824 -1.01496,-0.41373 -0.23097,-0.27549 -0.34545,-0.6675 -0.34545,-1.17395 v -6.48516 z m -6.60441,0.22825 c 0.39723,0 0.73401,0.0678 1.01089,0.20279 0.27756,0.13426 0.50213,0.31217 0.67257,0.52991 0.17113,0.21846 0.29409,0.46735 0.36991,0.74491 0.0752,0.27758 0.11413,0.56346 0.11413,0.85701 h -4.61014 c 0.1266,-0.75339 0.38878,-1.33268 0.78669,-1.73337 0.39723,-0.40002 0.94985,-0.60125 1.65595,-0.60125 z m 51.35056,1.7232 c 0.32904,0 0.60769,0.0559 0.83866,0.16713 0.23027,0.11201 0.41682,0.25897 0.55742,0.43922 0.14262,0.18085 0.24301,0.38624 0.30571,0.61651 0.0626,0.22957 0.0937,0.46646 0.0937,0.70925 h -3.81531 c 0.10506,-0.62401 0.32213,-1.10197 0.65117,-1.43378 0.32767,-0.33187 0.78352,-0.49833 1.36858,-0.49833 z m -21.92062,0.15796 c 0.70263,0 1.22087,0.24659 1.552,0.73983 0.33252,0.49253 0.49729,1.24467 0.49729,2.25616 0,1.0122 -0.16545,1.76728 -0.49729,2.26329 -0.33113,0.49601 -0.84799,0.7439 -1.552,0.7439 -0.72349,0 -1.25167,-0.24789 -1.58767,-0.7439 -0.33531,-0.49601 -0.50239,-1.25109 -0.50239,-2.26329 0,-1.01149 0.16639,-1.76363 0.50239,-2.25616 0.336,-0.49324 0.86418,-0.73983 1.58767,-0.73983 z m 11.18195,0.0296 c 0.24279,0 0.46353,0.048 0.66034,0.14674 0.19826,0.0987 0.36732,0.26164 0.50851,0.48914 0.14041,0.22746 0.25047,0.52366 0.32914,0.89166 0.0786,0.36801 0.11821,0.82196 0.11821,1.36042 0,0.56558 -0.0494,1.04443 -0.14879,1.43888 -0.0974,0.39444 -0.23273,0.715 -0.40862,0.96199 -0.17253,0.24556 -0.37936,0.42479 -0.61449,0.536 -0.23792,0.1134 -0.49745,0.16917 -0.78058,0.16917 -0.29428,0 -0.57693,-0.0515 -0.84683,-0.15387 -0.26992,-0.10166 -0.51904,-0.28033 -0.75001,-0.53704 v -4.33705 c 0.13218,-0.15791 0.26362,-0.29714 0.39437,-0.41882 0.13147,-0.12237 0.27562,-0.22171 0.43003,-0.29961 0.15444,-0.0806 0.32155,-0.14124 0.50239,-0.18444 0.18157,-0.041 0.38234,-0.0631 0.60633,-0.0631 z m -65.343037,5.68115 c -0.398336,0.0272 -0.784328,0.14037 -1.081203,0.31488 -2.564227,1.50266 -3.594587,4.85967 -3.663458,4.88122 v 0.002 c 0.04452,-0.0584 3.537379,0.15671 5.844209,-1.72015 0.713753,-0.58158 1.242406,-1.91097 0.639958,-2.78403 -0.376965,-0.54652 -1.075613,-0.7393 -1.739506,-0.69396 z m 66.469077,3.853 c -0.29913,0 -0.57887,0.0545 -0.83764,0.16509 -0.2602,0.10991 -0.48988,0.26381 -0.69091,0.46061 -0.20037,0.19687 -0.35845,0.42499 -0.47183,0.68378 -0.11339,0.26017 -0.1712,0.53954 -0.1712,0.83866 0,0.29151 0.0573,0.56603 0.1712,0.82136 0.11341,0.25599 0.27146,0.4791 0.47183,0.67257 0.20103,0.19339 0.43071,0.34619 0.69091,0.45958 0.25877,0.11477 0.53851,0.1712 0.83764,0.1712 0.30749,0 0.59761,-0.0564 0.86822,-0.1712 0.27131,-0.11339 0.51016,-0.26555 0.71536,-0.45958 0.20386,-0.19342 0.36472,-0.41727 0.48303,-0.67257 0.11833,-0.25533 0.17732,-0.52985 0.17732,-0.82136 0,-0.29912 -0.059,-0.57849 -0.17732,-0.83866 -0.11825,-0.25879 -0.27917,-0.48698 -0.48303,-0.68378 -0.2052,-0.19757 -0.44265,-0.35136 -0.71536,-0.46061 -0.27129,-0.11063 -0.56073,-0.16509 -0.86822,-0.16509 z m -34.35394,0.0704 v 17.6763 h 3.66141 v -17.6763 z m -33.504091,2.13388 c -1.171503,0 -2.222115,0.20179 -3.152917,0.60531 -0.92941,0.40418 -1.721461,0.94889 -2.375388,1.6376 -0.653925,0.68871 -1.156919,1.49115 -1.506144,2.40595 -0.349232,0.91551 -0.523789,1.88502 -0.523789,2.90835 0,1.35726 0.204088,2.54811 0.612445,3.57073 0.408358,1.02333 0.963836,1.8806 1.667154,2.57003 0.704013,0.68799 1.525915,1.20686 2.465063,1.55607 0.939846,0.34931 1.946009,0.52378 3.019423,0.52378 0.521751,0 1.069742,-0.0353 1.645752,-0.10903 0.575316,-0.0743 1.151639,-0.2068 1.726258,-0.39946 0.576012,-0.19132 1.136666,-0.45774 1.683458,-0.79791 0.546098,-0.33948 1.054494,-0.77913 1.527545,-1.31966 l -1.327812,-1.63996 c -0.18783,-0.26648 -0.463628,-0.39844 -0.827462,-0.39844 -0.276181,0 -0.538623,0.0646 -0.789759,0.1926 -0.251135,0.12799 -0.52661,0.27084 -0.826442,0.42799 -0.300529,0.15724 -0.642169,0.30003 -1.026176,0.428 -0.383313,0.12719 -0.840465,0.19159 -1.372651,0.19159 -0.99341,0 -1.805236,-0.28781 -2.435511,-0.86314 -0.629576,-0.57532 -1.017281,-1.50366 -1.164766,-2.783 h 8.826946 c 0.206613,0 0.375631,-0.0241 0.508502,-0.0734 0.132865,-0.0487 0.238629,-0.138 0.317941,-0.26598 0.07861,-0.12731 0.132113,-0.29926 0.162028,-0.51562 0.02991,-0.21635 0.04381,-0.49739 0.04381,-0.84174 0,-1.10195 -0.169017,-2.08764 -0.508502,-2.9593 -0.339486,-0.8703 -0.812258,-1.60585 -1.417488,-2.20624 -0.605228,-0.60036 -1.328481,-1.05783 -2.169541,-1.37365 -0.841061,-0.3144 -1.769094,-0.47081 -2.781985,-0.47081 z m 57.770541,3.08565 c -0.71654,0 -1.38208,0.0914 -1.99428,0.27719 -0.61357,0.18505 -1.14701,0.44749 -1.59989,0.78975 -0.45288,0.34227 -0.80848,0.76126 -1.06795,1.25241 -0.26019,0.49183 -0.3903,1.04473 -0.3903,1.659 0,0.74019 0.18301,1.3891 0.54824,1.94841 0.36663,0.55861 0.86859,1.00773 1.50514,1.34512 -0.28316,0.13496 -0.52716,0.28848 -0.73169,0.46164 -0.20452,0.17183 -0.37251,0.35485 -0.50748,0.54415 -0.13286,0.18854 -0.23222,0.38256 -0.29552,0.58291 -0.0627,0.20103 -0.0918,0.39289 -0.0918,0.57371 0,0.43271 0.0807,0.79127 0.2456,1.0751 0.16487,0.28313 0.38689,0.51439 0.66237,0.69601 -0.57462,0.21219 -1.02827,0.50517 -1.35941,0.87942 -0.32973,0.37429 -0.49523,0.8314 -0.49523,1.3747 0,0.4167 0.11065,0.81941 0.33117,1.20552 0.22122,0.38468 0.56056,0.72581 1.02108,1.02007 0.46054,0.29497 1.03939,0.53315 1.73647,0.71535 0.69634,0.1809 1.5247,0.27209 2.48543,0.27209 0.97603,0 1.84204,-0.12429 2.59754,-0.37195 0.75619,-0.24905 1.39448,-0.57838 1.91274,-0.98745 0.52036,-0.40974 0.91393,-0.87724 1.18107,-1.40526 0.26781,-0.52731 0.40149,-1.06592 0.40149,-1.6162 0,-0.59062 -0.10801,-1.07735 -0.32506,-1.45927 -0.21636,-0.3819 -0.50088,-0.68761 -0.85498,-0.91509 -0.35478,-0.22888 -0.7607,-0.39233 -1.21775,-0.49526 -0.45567,-0.10228 -0.91998,-0.17591 -1.39304,-0.21909 -0.47235,-0.0431 -0.93737,-0.0697 -1.39302,-0.0836 -0.45706,-0.0107 -0.86296,-0.0346 -1.21776,-0.0692 -0.35341,-0.0349 -0.63998,-0.0991 -0.85702,-0.18954 -0.21566,-0.0899 -0.32405,-0.23807 -0.32405,-0.44329 0,-0.20453 0.13502,-0.38497 0.40355,-0.54213 0.33808,0.0468 0.6995,0.0713 1.08629,0.0713 0.6922,0 1.34108,-0.0924 1.94841,-0.2782 0.60662,-0.18436 1.13161,-0.44781 1.57545,-0.79078 0.44451,-0.34228 0.79635,-0.75722 1.05163,-1.24628 0.25604,-0.48696 0.38419,-1.03932 0.38419,-1.65289 0,-0.37844 -0.0553,-0.74305 -0.1651,-1.09854 l 0.89575,-0.20074 c 0.27618,-0.0619 0.47053,-0.15276 0.58392,-0.27106 0.11279,-0.11826 0.17119,-0.27884 0.17119,-0.48405 v -1.33494 h -3.69505 c -0.39306,-0.18921 -0.82142,-0.33382 -1.28196,-0.43616 -0.46052,-0.10239 -0.9508,-0.15286 -1.47047,-0.15286 z m -43.30116,0.0224 c -1.00036,0 -1.88034,0.16058 -2.63931,0.48405 -0.76036,0.32348 -1.39727,0.76572 -1.912751,1.32781 -0.515485,0.5635 -0.905883,1.22798 -1.168837,1.99528 -0.263665,0.76732 -0.396415,1.59316 -0.396415,2.47527 0,1.00733 0.151885,1.90551 0.454495,2.6923 0.303321,0.78749 0.712456,1.45034 1.227951,1.99019 0.515487,0.53913 1.114487,0.94991 1.795557,1.23304 0.68037,0.28318 1.39521,0.42494 2.14303,0.42494 0.41741,0 0.84601,-0.0286 1.28706,-0.0876 0.44036,-0.0591 0.87972,-0.16515 1.3166,-0.31896 0.43618,-0.15304 0.86423,-0.36662 1.28095,-0.63793 0.41669,-0.2713 0.81485,-0.62302 1.1933,-1.05571 l -1.06389,-1.31255 c -0.14887,-0.21221 -0.37024,-0.31793 -0.66034,-0.31793 -0.22053,0 -0.40387,0.0557 -0.54928,0.16407 -0.14537,0.11129 -0.30469,0.23241 -0.47791,0.36175 -0.17392,0.1301 -0.38448,0.24791 -0.63283,0.35362 -0.24766,0.1057 -0.5838,0.15896 -1.00887,0.15896 -0.79583,0 -1.41909,-0.31368 -1.87196,-0.94465 -0.45288,-0.62888 -0.67869,-1.5303 -0.67869,-2.7025 0,-0.55932 0.0516,-1.06021 0.15388,-1.50613 0.10228,-0.44385 0.25964,-0.8203 0.47182,-1.12708 0.21218,-0.30817 0.48215,-0.5454 0.80911,-0.71028 0.32697,-0.16415 0.71403,-0.24762 1.16273,-0.24762 0.36245,0 0.66482,0.0441 0.90898,0.13045 0.24349,0.087 0.45567,0.18268 0.63794,0.28839 0.18018,0.10721 0.34374,0.20322 0.48912,0.28939 0.14541,0.0871 0.31033,0.13045 0.4912,0.13045 0.18852,0 0.33488,-0.0386 0.43716,-0.11923 0.10301,-0.0773 0.20766,-0.18365 0.31896,-0.31794 l 0.96809,-1.28806 c -0.58228,-0.58994 -1.23542,-1.03837 -1.95961,-1.34514 -0.72421,-0.30673 -1.56652,-0.46061 -2.52724,-0.46061 z m 11.33685,0 c -0.93775,0 -1.78877,0.14671 -2.55678,0.43819 -0.76732,0.2908 -1.42893,0.70704 -1.98408,1.25038 -0.55445,0.5433 -0.98374,1.20227 -1.28704,1.97796 -0.30263,0.77636 -0.4545,1.6475 -0.4545,2.61588 0,0.976 0.15188,1.8553 0.4545,2.63932 0.3033,0.78332 0.73259,1.44779 1.28704,1.99528 0.55515,0.54749 1.21676,0.96764 1.98408,1.26259 0.76871,0.29633 1.61971,0.44328 2.55678,0.44328 0.92802,0 1.7746,-0.1476 2.53844,-0.44328 0.76384,-0.29495 1.41792,-0.7151 1.9647,-1.26259 0.54888,-0.5461 0.97424,-1.21127 1.27687,-1.99528 0.30402,-0.78331 0.4555,-1.66331 0.4555,-2.63932 0,-0.96907 -0.15219,-1.8392 -0.4555,-2.61488 -0.30263,-0.77565 -0.72799,-1.43533 -1.27687,-1.97795 -0.54678,-0.54472 -1.20086,-0.96059 -1.9647,-1.25139 -0.76315,-0.29146 -1.60972,-0.43819 -2.53844,-0.43819 z m 19.104,0 c -0.93637,0 -1.78878,0.14671 -2.55678,0.43819 -0.76733,0.2908 -1.42792,0.70667 -1.98307,1.25139 -0.55513,0.54262 -0.98374,1.2023 -1.28704,1.97795 -0.30261,0.77568 -0.4545,1.64581 -0.4545,2.61488 0,0.97601 0.15048,1.85601 0.4545,2.63932 0.3033,0.78401 0.73191,1.44918 1.28704,1.99528 0.55515,0.54749 1.21574,0.96795 1.98307,1.26361 0.768,0.29571 1.62041,0.44226 2.55678,0.44226 0.92869,0 1.77491,-0.1466 2.53944,-0.44226 0.76314,-0.29566 1.41824,-0.71612 1.96573,-1.26361 0.54749,-0.5461 0.97221,-1.21127 1.27482,-1.99528 0.30331,-0.78331 0.4545,-1.66331 0.4545,-2.63932 0,-0.96907 -0.15119,-1.8392 -0.4545,-2.61488 -0.30331,-0.77565 -0.72803,-1.43533 -1.27482,-1.97795 -0.54749,-0.54472 -1.20259,-0.96059 -1.96573,-1.25139 -0.76385,-0.29146 -1.61005,-0.43819 -2.53944,-0.43819 z m 31.84913,9.9e-4 c -0.93704,0 -1.77739,0.16025 -2.52314,0.48302 -0.74505,0.3235 -1.37808,0.75986 -1.90051,1.31152 -0.52524,0.55027 -0.92587,1.1921 -1.20553,1.92395 -0.28036,0.73114 -0.41882,1.50768 -0.41882,2.32647 0,1.08663 0.1632,2.03929 0.49015,2.85739 0.32558,0.81949 0.77081,1.50411 1.33291,2.0544 0.56348,0.55165 1.22086,0.96662 1.97287,1.24628 0.75201,0.27957 1.55598,0.41882 2.41511,0.41882 0.41673,0 0.8554,-0.0286 1.31662,-0.0876 0.46053,-0.0597 0.92095,-0.16515 1.38081,-0.31895 0.45981,-0.15375 0.90857,-0.3656 1.34614,-0.63691 0.43689,-0.27202 0.84441,-0.62404 1.22285,-1.05675 l -1.06286,-1.31151 c -0.14889,-0.21212 -0.36989,-0.31793 -0.66135,-0.31793 -0.22053,0 -0.43039,0.0506 -0.63282,0.15285 -0.19897,0.10229 -0.41864,0.21639 -0.65934,0.3424 -0.24069,0.12522 -0.51316,0.24143 -0.82135,0.34239 -0.30538,0.10239 -0.67207,0.15389 -1.09851,0.15389 -0.79377,0 -1.44442,-0.23039 -1.94741,-0.69091 -0.50365,-0.46054 -0.81452,-1.20258 -0.93344,-2.22661 h 7.06197 c 0.16418,0 0.30113,-0.019 0.40762,-0.0582 0.10581,-0.039 0.19043,-0.11006 0.25374,-0.21298 0.0633,-0.10229 0.1071,-0.24059 0.12943,-0.41373 0.0237,-0.17323 0.0346,-0.3964 0.0346,-0.67258 0,-0.8821 -0.13497,-1.6726 -0.40558,-2.36824 -0.27269,-0.69639 -0.6507,-1.28429 -1.13419,-1.76499 -0.48349,-0.48001 -1.06342,-0.84599 -1.73542,-1.09852 -0.67134,-0.25185 -1.41412,-0.37705 -2.22458,-0.37705 z m -76.670704,0.0489 c 0.491139,0 0.909019,0.084 1.255461,0.25171 0.343657,0.16694 0.622091,0.38666 0.833575,0.65728 0.211482,0.26992 0.362935,0.57685 0.45755,0.92122 0.09253,0.34434 0.13961,0.69971 0.13961,1.06286 h -5.711733 c 0.156525,-0.93428 0.481349,-1.65074 0.973185,-2.14814 0.491836,-0.49601 1.177205,-0.74493 2.052352,-0.74493 z m 65.926944,0.14063 v 12.24379 h 3.66142 v -12.24403 z m -8.24506,2.25412 c 0.60592,0 1.04528,0.14143 1.3166,0.42596 0.27201,0.28245 0.4066,0.67252 0.4066,1.16782 0,0.48071 -0.13459,0.87166 -0.4066,1.17496 -0.27132,0.3034 -0.71068,0.45449 -1.3166,0.45449 -0.29914,0 -0.5578,-0.0422 -0.77347,-0.12432 -0.21704,-0.0828 -0.39479,-0.19569 -0.536,-0.3424 -0.14262,-0.1454 -0.24677,-0.31579 -0.31285,-0.51257 -0.0675,-0.19689 -0.10083,-0.41502 -0.10083,-0.65016 0,-0.49601 0.1353,-0.88537 0.4066,-1.16782 0.27131,-0.28455 0.70928,-0.42596 1.31661,-0.42596 z m 19.05812,0.0825 c 0.39442,0 0.72998,0.0673 1.00478,0.20075 0.27479,0.13427 0.49745,0.30948 0.66645,0.52582 0.16971,0.21637 0.2907,0.46231 0.36584,0.73779 0.0753,0.27477 0.1121,0.55942 0.1121,0.8509 h -4.5694 c 0.12592,-0.74851 0.38651,-1.32119 0.77958,-1.71912 0.39305,-0.39793 0.94151,-0.59614 1.64065,-0.59614 z m -51.02243,0.18852 c 0.84245,0 1.46253,0.29523 1.85975,0.88657 0.39653,0.58922 0.59513,1.49098 0.59513,2.70352 0,1.21184 -0.1986,2.11553 -0.59513,2.70963 -0.39722,0.59409 -1.0173,0.89167 -1.85975,0.89167 -0.8661,0 -1.49943,-0.29758 -1.90154,-0.89167 -0.40069,-0.5941 -0.60224,-1.49779 -0.60224,-2.70963 0,-1.21254 0.20155,-2.1143 0.60224,-2.70352 0.4014,-0.59134 1.03613,-0.88657 1.90154,-0.88657 z m 19.104,0 c 0.84244,0 1.46251,0.29523 1.85974,0.88657 0.39721,0.58922 0.59614,1.49098 0.59614,2.70352 0,1.21184 -0.19893,2.11553 -0.59614,2.70963 -0.39723,0.59409 -1.01661,0.89167 -1.85974,0.89167 -0.86612,0 -1.49811,-0.29758 -1.89951,-0.89167 -0.4021,-0.5941 -0.60328,-1.49779 -0.60328,-2.70963 0,-1.21254 0.20118,-2.1143 0.60328,-2.70352 0.4014,-0.59134 1.03339,-0.88657 1.89951,-0.88657 z m 11.23086,9.06846 c 0.33878,0.0398 0.68005,0.0656 1.02718,0.0775 0.34645,0.0124 0.6799,0.025 1.00478,0.0408 0.32211,0.016 0.6246,0.0399 0.90288,0.0713 0.28035,0.0314 0.52398,0.0823 0.73268,0.15388 0.20731,0.0702 0.37321,0.16497 0.49424,0.2833 0.12245,0.11757 0.18445,0.27424 0.18445,0.47181 0,0.18087 -0.0399,0.34937 -0.11923,0.50239 -0.0793,0.15375 -0.22019,0.28519 -0.41984,0.3964 -0.20105,0.10931 -0.47035,0.19554 -0.80911,0.25884 -0.3381,0.0633 -0.77167,0.0948 -1.29828,0.0948 -0.48835,0 -0.89168,-0.0302 -1.20959,-0.0887 -0.31931,-0.0591 -0.57302,-0.1406 -0.76226,-0.24354 -0.18851,-0.10229 -0.32025,-0.22364 -0.39539,-0.36484 -0.0743,-0.14119 -0.11209,-0.29968 -0.11209,-0.47283 0,-0.24418 0.0743,-0.46316 0.2191,-0.65524 0.14609,-0.19269 0.33229,-0.36787 0.56048,-0.52583 z m 36.55508,0.72351 0.6532,6.53003 -5.14615,4.2861 6.71446,1.50308 2.75141,6.03681 3.49633,-5.60065 6.849,-0.55437 -4.55513,-4.96477 1.4817,-6.38125 -6.31196,2.53538 z m -81.37868,2.13386 v 14.75573 h 3.05507 v -14.75573 z m 57.75627,1.5683 c -0.36664,0 -0.59084,0.15561 -0.66953,0.47284 l -0.60123,2.49258 -1.62742,0.3159 v 1.19229 c 0,0.19685 0.0561,0.34645 0.16816,0.44939 0.112,0.10103 0.24463,0.15285 0.40455,0.15285 h 0.86619 v 5.28374 c 0,0.45287 0.0662,0.86472 0.19769,1.23203 0.13079,0.36731 0.32285,0.68178 0.57679,0.94056 0.25182,0.2595 0.56401,0.45902 0.93548,0.60022 0.37218,0.14268 0.80008,0.21298 1.28704,0.21298 0.52524,0 1.0346,-0.074 1.5306,-0.2201 0.49324,-0.14817 0.93542,-0.37013 1.32985,-0.66646 l -0.92631,-1.44899 c -0.059,-0.0912 -0.1172,-0.15938 -0.17222,-0.20177 -0.0569,-0.0433 -0.12966,-0.0653 -0.22214,-0.0653 -0.0667,0 -0.12431,0.0127 -0.17223,0.0358 -0.0508,0.0217 -0.10301,0.0493 -0.15999,0.0784 -0.0557,0.0294 -0.12051,0.0547 -0.19564,0.0784 -0.0758,0.0243 -0.16926,0.0346 -0.28126,0.0346 -0.21775,0 -0.38319,-0.077 -0.49933,-0.23133 -0.11556,-0.15444 -0.17223,-0.34943 -0.17223,-0.58595 v -5.07686 h 2.48443 v -2.08905 h -2.48443 v -2.9868 z m -32.57777,0.83664 4.78745,12.35079 h 3.35876 l 4.78849,-12.35079 h -2.92975 c -0.23931,0 -0.44568,0.0614 -0.61958,0.18445 -0.176,0.12313 -0.29298,0.27556 -0.35768,0.45857 l -1.78638,5.53849 c -0.14191,0.45217 -0.27794,0.89419 -0.40457,1.32271 -0.12662,0.42925 -0.23403,0.8575 -0.321,1.28604 -0.0877,-0.42921 -0.19345,-0.85748 -0.31589,-1.28604 -0.12314,-0.42852 -0.25057,-0.87054 -0.38623,-1.32271 l -1.71503,-5.53849 c -0.0654,-0.18297 -0.18572,-0.33611 -0.3638,-0.45857 -0.17949,-0.12246 -0.39877,-0.18445 -0.66034,-0.18445 z m 27.83921,1.93108 c -0.55307,0 -1.06178,0.16708 -1.52856,0.5024 -0.46679,0.33461 -0.88663,0.7925 -1.26158,1.3706 l -0.16814,-0.95586 c -0.0257,-0.13149 -0.0577,-0.24337 -0.0937,-0.33526 -0.0362,-0.0925 -0.0881,-0.16576 -0.15694,-0.22215 -0.068,-0.0557 -0.15445,-0.0969 -0.25679,-0.12331 -0.10291,-0.0259 -0.22846,-0.0387 -0.38009,-0.0387 h -1.8129 v 10.21997 h 3.0551 v -6.26914 c 0.45915,-0.85359 1.09126,-1.28094 1.89338,-1.28094 0.22886,0 0.4198,0.0152 0.57066,0.0438 0.15098,0.0308 0.28339,0.0447 0.39539,0.0447 0.13086,0 0.2362,-0.028 0.31488,-0.0836 0.0793,-0.0557 0.13154,-0.15199 0.15796,-0.29043 l 0.39437,-2.24698 c -0.28316,-0.22332 -0.65758,-0.33527 -1.12299,-0.33527 z m -34.94092,0.0386 c -0.6762,0 -1.2684,0.088 -1.77416,0.2619 -0.50644,0.1746 -0.92594,0.40882 -1.26055,0.70517 -0.33531,0.29498 -0.58643,0.63827 -0.75409,1.02924 -0.16765,0.39097 -0.2517,0.80336 -0.2517,1.23813 0,0.46611 0.0691,0.86391 0.20686,1.19228 0.13775,0.32836 0.31744,0.60647 0.54213,0.83257 0.2226,0.22679 0.47804,0.415 0.76327,0.56251 0.2859,0.14747 0.57664,0.27439 0.87229,0.38009 0.29635,0.10506 0.58741,0.19821 0.87332,0.28024 0.28593,0.0829 0.53996,0.17072 0.76327,0.26598 0.2233,0.0947 0.40439,0.20883 0.54213,0.34036 0.13843,0.13148 0.20686,0.29925 0.20686,0.50238 0,0.1127 -0.0224,0.22098 -0.0683,0.32609 -0.0458,0.10635 -0.11827,0.20077 -0.21706,0.28636 -0.0988,0.0849 -0.23017,0.15125 -0.39436,0.20074 -0.16418,0.0502 -0.36439,0.0734 -0.60022,0.0734 -0.3346,0 -0.61374,-0.0386 -0.83358,-0.11718 -0.21913,-0.0787 -0.4126,-0.16431 -0.57678,-0.2568 -0.16417,-0.0919 -0.31664,-0.17752 -0.45856,-0.25681 -0.14121,-0.0786 -0.30085,-0.11819 -0.47895,-0.11819 -0.18991,0 -0.34265,0.0384 -0.46162,0.11412 -0.11827,0.0751 -0.22118,0.17928 -0.30673,0.31082 l -0.70926,1.12297 c 0.19688,0.17809 0.43378,0.34392 0.70926,0.49832 0.27618,0.15442 0.57729,0.28666 0.90287,0.39947 0.32558,0.11191 0.66134,0.20049 1.00988,0.26596 0.34781,0.0661 0.6963,0.0988 1.04552,0.0988 0.69638,0 1.31085,-0.0856 1.84651,-0.2568 0.53567,-0.17044 0.98673,-0.41127 1.35126,-0.71944 0.36452,-0.30888 0.6387,-0.67581 0.82236,-1.10363 0.18505,-0.42715 0.27615,-0.89372 0.27615,-1.40017 0,-0.41322 -0.0674,-0.76853 -0.20177,-1.06489 -0.13425,-0.29495 -0.3127,-0.54647 -0.53601,-0.75307 -0.22332,-0.20662 -0.4747,-0.38158 -0.75715,-0.52277 -0.28245,-0.14052 -0.57123,-0.26458 -0.86618,-0.3689 -0.29427,-0.10506 -0.5824,-0.20076 -0.86415,-0.28635 -0.28314,-0.0856 -0.53487,-0.17604 -0.75817,-0.27207 -0.2233,-0.0947 -0.40277,-0.20394 -0.53704,-0.32916 -0.13496,-0.12453 -0.20176,-0.28178 -0.20176,-0.47386 0,-0.26295 0.10343,-0.46799 0.3108,-0.61549 0.20661,-0.14748 0.50386,-0.22114 0.89064,-0.22114 0.26855,0 0.50801,0.0313 0.71741,0.0937 0.21009,0.062 0.39791,0.12917 0.56558,0.20076 0.16625,0.0717 0.3227,0.14008 0.46672,0.20278 0.144,0.0626 0.28838,0.0937 0.43309,0.0937 0.13704,0 0.25027,-0.0266 0.33935,-0.0796 0.0876,-0.0521 0.17207,-0.14133 0.25066,-0.26597 l 0.68888,-1.07407 c -0.19061,-0.19132 -0.4099,-0.36794 -0.66034,-0.52787 -0.24904,-0.16138 -0.52554,-0.30093 -0.82746,-0.41984 -0.30261,-0.11822 -0.62541,-0.20967 -0.97114,-0.27514 -0.34506,-0.0661 -0.70131,-0.0999 -1.07,-0.0999 z m 49.23198,0 c -0.6755,0 -1.26911,0.088 -1.77416,0.2619 -0.50575,0.1746 -0.92799,0.40882 -1.2626,0.70517 -0.33461,0.29498 -0.58647,0.63827 -0.75409,1.02924 -0.16771,0.39097 -0.25068,0.80336 -0.25068,1.23813 0,0.46611 0.0695,0.86391 0.20584,1.19228 0.13846,0.32836 0.31917,0.60647 0.54315,0.83257 0.22331,0.22679 0.47702,0.415 0.76225,0.56251 0.2866,0.14747 0.57838,0.27439 0.87332,0.38009 0.29775,0.10506 0.5874,0.19821 0.87332,0.28024 0.28523,0.0829 0.53926,0.17072 0.76326,0.26598 0.22399,0.0947 0.40472,0.20883 0.54315,0.34036 0.13906,0.13148 0.20687,0.29925 0.20687,0.50238 0,0.1127 -0.023,0.22098 -0.0683,0.32609 -0.0473,0.10635 -0.11767,0.20077 -0.21706,0.28636 -0.0995,0.0849 -0.23089,0.15125 -0.39436,0.20074 -0.1642,0.0502 -0.36542,0.0734 -0.60124,0.0734 -0.33531,0 -0.61304,-0.0386 -0.83358,-0.11718 -0.21843,-0.0787 -0.41149,-0.16431 -0.57576,-0.2568 -0.16418,-0.0919 -0.31737,-0.17752 -0.45857,-0.25681 -0.1412,-0.0786 -0.30045,-0.11819 -0.47793,-0.11819 -0.18991,0 -0.34374,0.0384 -0.46264,0.11412 -0.11885,0.0751 -0.22253,0.17928 -0.30673,0.31082 l -0.71027,1.12297 c 0.19754,0.17809 0.43478,0.34392 0.71027,0.49832 0.27618,0.15442 0.5773,0.28666 0.90287,0.39947 0.32419,0.11191 0.66064,0.20049 1.00987,0.26596 0.34713,0.0661 0.69599,0.0988 1.04452,0.0988 0.69637,0 1.31357,-0.0856 1.84853,-0.2568 0.53567,-0.17044 0.98501,-0.41127 1.35023,-0.71944 0.36384,-0.30888 0.63843,-0.67581 0.8234,-1.10363 0.183,-0.42715 0.27514,-0.89372 0.27514,-1.40017 0,-0.41322 -0.0668,-0.76853 -0.20176,-1.06489 -0.13426,-0.29495 -0.31341,-0.54647 -0.53603,-0.75307 -0.22122,-0.20662 -0.47679,-0.38158 -0.75715,-0.52277 -0.28244,-0.14052 -0.57052,-0.26458 -0.86619,-0.3689 -0.29427,-0.10506 -0.58373,-0.20076 -0.86619,-0.28635 -0.28102,-0.0856 -0.53282,-0.17604 -0.75611,-0.27207 -0.224,-0.0947 -0.40252,-0.20394 -0.53602,-0.32916 -0.13489,-0.12453 -0.20176,-0.28178 -0.20176,-0.47386 0,-0.26295 0.10353,-0.46799 0.31079,-0.61549 0.20663,-0.14748 0.50422,-0.22114 0.88963,-0.22114 0.2699,0 0.50833,0.0313 0.71842,0.0937 0.21078,0.062 0.39795,0.12917 0.56557,0.20076 0.16766,0.0717 0.32343,0.14008 0.46877,0.20278 0.1419,0.0626 0.28812,0.0937 0.43207,0.0937 0.13773,0 0.25099,-0.0266 0.33933,-0.0796 0.0882,-0.0521 0.17243,-0.14133 0.25172,-0.26597 l 0.6858,-1.07407 c -0.19061,-0.19132 -0.41059,-0.36794 -0.66034,-0.52787 -0.24972,-0.16138 -0.52726,-0.30093 -0.82848,-0.41984 -0.3026,-0.11822 -0.62575,-0.20967 -0.97013,-0.27514 -0.34573,-0.0661 -0.70267,-0.0999 -1.06998,-0.0999 z m -58.5287,0.002 c -0.78193,0 -1.48309,0.13535 -2.10432,0.40455 -0.62055,0.26992 -1.14909,0.63394 -1.58665,1.09446 -0.43688,0.46055 -0.77173,0.99485 -1.00479,1.60703 -0.23374,0.61148 -0.35055,1.25815 -0.35055,1.94128 0,0.90715 0.13627,1.70242 0.40966,2.38558 0.27201,0.68452 0.64424,1.25521 1.11381,1.71504 0.46959,0.46051 1.01826,0.80703 1.64576,1.04146 0.62748,0.2323 1.29881,0.34954 2.01465,0.34954 0.34782,0 0.71413,-0.0252 1.09955,-0.0754 0.38399,-0.0502 0.76885,-0.13799 1.15355,-0.26597 0.38331,-0.12732 0.75846,-0.30619 1.12299,-0.53296 0.36521,-0.2254 0.70524,-0.51974 1.02107,-0.88147 l -0.88758,-1.09446 c -0.12452,-0.1773 -0.30885,-0.26597 -0.55233,-0.26597 -0.18365,0 -0.35917,0.0428 -0.52685,0.1284 -0.16764,0.0848 -0.35164,0.18022 -0.5513,0.28532 -0.20034,0.10646 -0.43049,0.20217 -0.6858,0.28636 -0.2567,0.0855 -0.56236,0.12739 -0.91715,0.12739 -0.66366,0 -1.20551,-0.19138 -1.62639,-0.57679 -0.42157,-0.38331 -0.68046,-1.0017 -0.77855,-1.85669 h 5.89516 c 0.13774,0 0.25202,-0.0177 0.34037,-0.051 0.0884,-0.0325 0.15876,-0.0905 0.21094,-0.17527 0.0529,-0.0862 0.0895,-0.20072 0.10903,-0.34545 0.0203,-0.1433 0.0295,-0.33194 0.0295,-0.56149 0,-0.73671 -0.11358,-1.39534 -0.34038,-1.97695 -0.22748,-0.58226 -0.54251,-1.07283 -0.94668,-1.47352 -0.40348,-0.40002 -0.88597,-0.70637 -1.44807,-0.91715 -0.5621,-0.21151 -1.18185,-0.31591 -1.85872,-0.31591 z m 33.10563,0 c -0.78194,0 -1.48448,0.13394 -2.10433,0.40455 -0.62053,0.26992 -1.14978,0.63394 -1.58665,1.09446 -0.43757,0.46055 -0.77308,0.99485 -1.00681,1.60703 -0.23235,0.61148 -0.34851,1.25815 -0.34851,1.94128 0,0.90715 0.13662,1.70242 0.40863,2.38558 0.27339,0.68452 0.64457,1.25521 1.11484,1.71504 0.46957,0.46051 1.01793,0.80703 1.64474,1.04146 0.62818,0.2323 1.30015,0.34954 2.01668,0.34954 0.34852,0 0.71516,-0.0252 1.10055,-0.0754 0.38332,-0.0502 0.76785,-0.13799 1.15255,-0.26597 0.384,-0.12732 0.75845,-0.30619 1.12298,-0.53296 0.36522,-0.2254 0.70663,-0.51974 1.02107,-0.88147 l -0.88758,-1.09446 c -0.12522,-0.1773 -0.30953,-0.26597 -0.55232,-0.26597 -0.18505,0 -0.35917,0.0428 -0.52685,0.1284 -0.16765,0.0848 -0.35266,0.18022 -0.55231,0.28532 -0.20035,0.10646 -0.4298,0.20217 -0.68582,0.28636 -0.2553,0.0855 -0.56202,0.12739 -0.91611,0.12739 -0.66437,0 -1.20551,-0.19138 -1.62639,-0.57679 -0.42159,-0.38331 -0.68009,-1.0017 -0.77958,-1.85669 h 5.89415 c 0.13842,0 0.25201,-0.0177 0.34036,-0.051 0.0884,-0.0325 0.15909,-0.0898 0.21196,-0.17527 0.0529,-0.0862 0.0888,-0.20072 0.10903,-0.34545 0.0188,-0.1433 0.0286,-0.33194 0.0286,-0.56149 0,-0.73671 -0.11358,-1.39534 -0.34035,-1.97695 -0.22611,-0.58226 -0.5425,-1.07283 -0.9467,-1.47352 -0.40418,-0.40002 -0.88664,-0.70637 -1.44805,-0.91715 -0.5621,-0.21151 -1.18152,-0.31591 -1.85771,-0.31591 z m -33.04653,2.10942 c 0.32764,0 0.60771,0.0551 0.83868,0.16712 0.22957,0.112 0.41517,0.25861 0.55639,0.44022 0.14051,0.1788 0.2431,0.38487 0.30571,0.61653 0.0619,0.22956 0.0936,0.46473 0.0936,0.70823 h -3.81529 c 0.10507,-0.62403 0.32111,-1.10299 0.65015,-1.43481 0.32837,-0.33176 0.78556,-0.49729 1.37062,-0.49729 z m 33.1046,0 c 0.32836,0 0.60911,0.0559 0.83868,0.16712 0.22957,0.112 0.41487,0.25861 0.55538,0.44022 0.14332,0.1788 0.24375,0.38487 0.30775,0.61653 0.0619,0.22956 0.0927,0.46473 0.0927,0.70823 h -3.81427 c 0.10364,-0.62403 0.32008,-1.10299 0.64913,-1.43481 0.32905,-0.33176 0.78485,-0.49729 1.3706,-0.49729 z m 33.38486,7.20259 -2.7127,4.47665 -5.40397,0.55436 3.64003,3.83874 -1.11383,5.0575 4.96477,-2.10433 4.71307,2.57207 -0.57168,-5.13903 4.02827,-3.46984 -5.31735,-1.07 z m -12.55258,10.23323 -2.61892,2.4946 -3.66652,-0.54315 1.68652,3.14171 -1.67125,3.14578 3.66041,-0.55435 2.63015,2.48748 0.57576,-3.48309 3.29966,-1.60907 -3.30578,-1.59889 z"
       id="path34"
       inkscape:connector-curvature="0" />
  </g>
</svg>
