<?xml version="1.0" encoding="UTF-8" standalone="no"?>
<!-- Generator: Adobe Illustrator 25.0.1, SVG Export Plug-In . SVG Version: 6.00 Build 0)  -->

<svg
   xmlns:dc="http://purl.org/dc/elements/1.1/"
   xmlns:cc="http://creativecommons.org/ns#"
   xmlns:rdf="http://www.w3.org/1999/02/22-rdf-syntax-ns#"
   xmlns:svg="http://www.w3.org/2000/svg"
   xmlns="http://www.w3.org/2000/svg"
   xmlns:sodipodi="http://sodipodi.sourceforge.net/DTD/sodipodi-0.dtd"
   xmlns:inkscape="http://www.inkscape.org/namespaces/inkscape"
   version="1.1"
   id="Calque_1"
   x="0px"
   y="0px"
   viewBox="0 0 150 150"
   style="enable-background:new 0 0 150 150;"
   xml:space="preserve"
   sodipodi:docname="logo-generation-s.svg"
   inkscape:version="0.92.5 (2060ec1f9f, 2020-04-08)"><metadata
   id="metadata89"><rdf:RDF><cc:Work
       rdf:about=""><dc:format>image/svg+xml</dc:format><dc:type
         rdf:resource="http://purl.org/dc/dcmitype/StillImage" /><dc:title></dc:title></cc:Work></rdf:RDF></metadata><defs
   id="defs87">
	
	
	
	
	
		
	
	
	
	

		
	
		
	
		
		
		
		
		
		
		
		
		
		
		
		
		
		
		
		
		
	
		
		
	
		
		
		
		
		
		
		
		
		
	</defs><sodipodi:namedview
   pagecolor="#ffffff"
   bordercolor="#666666"
   borderopacity="1"
   objecttolerance="10"
   gridtolerance="10"
   guidetolerance="10"
   inkscape:pageopacity="0"
   inkscape:pageshadow="2"
   inkscape:window-width="1855"
   inkscape:window-height="1056"
   id="namedview85"
   showgrid="false"
   inkscape:zoom="2.2250293"
   inkscape:cx="208.70165"
   inkscape:cy="37.368297"
   inkscape:window-x="65"
   inkscape:window-y="24"
   inkscape:window-maximized="1"
   inkscape:current-layer="Calque_1" />
<style
   type="text/css"
   id="style2">
	.st0{fill:#043054;}
	.st1{fill:none;}
</style>
<path
   class="st0"
   d="m 36.233874,134.83794 c 0,-0.19144 0.09572,-0.38287 0.09572,-0.57431 0.191435,-0.67002 0.287153,-1.43576 0.478587,-2.10578 0,-0.19144 0.09572,-0.38287 0.09572,-0.57431 0,-0.0957 -0.09572,-0.19143 -0.191434,-0.19143 -0.09572,0 -0.191436,0 -0.287153,0.0957 0,0 -0.09572,0 -0.09572,0 -0.09572,-0.0957 -0.09572,-0.19144 0,-0.28716 0,0 0,0 0.09572,0 0.478587,-0.0957 0.957175,-0.28715 1.435763,-0.28715 0.191435,0 0.191435,0 0.09572,0.0957 0,0.28715 -0.09572,0.47859 -0.191435,0.76574 0,0.0957 0,0.19144 -0.09572,0.28716 0.09572,-0.0957 0.191435,-0.19144 0.191435,-0.38288 0.191435,-0.28715 0.38287,-0.47858 0.574306,-0.67002 0.287152,-0.19143 0.574305,-0.19143 0.861458,-0.19143 0.287152,0.0957 0.478587,0.28715 0.574305,0.5743 0,0.19144 0,0.38287 0,0.57431 0,0 0,0 0,0.0957 0,0 0,-0.0957 0.09572,-0.0957 0.191436,-0.28716 0.382871,-0.57431 0.670023,-0.86146 0.287153,-0.28715 0.574306,-0.38287 0.957176,-0.38287 0.38287,0 0.670022,0.28715 0.670022,0.67002 0,0.38287 0,0.76574 -0.09572,1.05289 -0.09572,0.38288 -0.191436,0.76575 -0.287153,1.0529 0,0.19143 0,0.28715 0,0.47859 0,0.19143 0.191435,0.28715 0.38287,0.19143 0.09572,0 0.191436,-0.0957 0.191436,-0.0957 0.09572,0 0.09572,-0.0957 0.191434,-0.0957 0,0 0.09572,0 0.09572,0 0,0 0,0.0957 0,0.0957 0,0.0957 -0.09572,0.0957 -0.09572,0.0957 -0.287152,0.28715 -0.574305,0.38287 -0.957175,0.38287 -0.38287,0 -0.670022,-0.19143 -0.670022,-0.67002 0,-0.28715 0.09572,-0.57431 0.09572,-0.86146 0.09572,-0.38287 0.191436,-0.67002 0.287152,-1.05289 0,-0.19144 0.09572,-0.47859 0.09572,-0.67003 0,-0.0957 0,-0.19143 0,-0.19143 0,-0.0957 -0.191435,-0.19144 -0.287153,-0.0957 -0.09572,0.0957 -0.191435,0.0957 -0.287153,0.19144 -0.287152,0.28715 -0.574305,0.67002 -0.76574,1.05289 -0.287152,0.47859 -0.38287,0.95717 -0.478588,1.43576 -0.09572,0.28715 -0.09572,0.57431 -0.191435,0.86146 0,0 0,0.0957 0,0.0957 -0.287153,0 -0.574305,0 -0.861458,0 0.09572,-0.28715 0.191435,-0.57431 0.191435,-0.95718 0.09572,-0.47859 0.191436,-1.05289 0.287152,-1.53148 0.09572,-0.28715 0.09572,-0.5743 0.09572,-0.86146 0,-0.28715 -0.191435,-0.38287 -0.478588,-0.19143 -0.191436,0.0957 -0.287152,0.28715 -0.38287,0.47859 -0.287153,0.38287 -0.574306,0.76574 -0.670023,1.24433 -0.09572,0.38286 -0.191435,0.76573 -0.287153,1.14861 0,0.19143 -0.09572,0.38287 -0.09572,0.5743 0,0.0957 0,0.0957 -0.09572,0.0957 -0.382871,0.19144 -0.670024,0.19144 -0.957176,0.19144 0,0 0,0 0,0 z"
   id="path4"
   inkscape:connector-curvature="0"
   style="fill:#ffffff;stroke-width:1" /><path
   class="st0"
   d="m 103.42759,134.83794 c 0.0957,-0.19144 0.0957,-0.47859 0.19144,-0.67003 0.0957,-0.5743 0.28715,-1.05289 0.38287,-1.62719 0.0957,-0.28716 0.0957,-0.67003 0.0957,-0.95718 0,-0.28715 -0.19143,-0.38287 -0.47858,-0.19143 -0.19144,0.0957 -0.28715,0.28715 -0.47859,0.47858 -0.28715,0.38287 -0.47859,0.76574 -0.67002,1.14861 -0.0957,0.38287 -0.19144,0.76575 -0.28716,1.24433 0,0.19144 -0.0957,0.38287 -0.0957,0.57431 0,0 0,0.0957 -0.0957,0.0957 -0.28715,0 -0.5743,0 -0.86145,0 0,-0.19144 0.0957,-0.38287 0.0957,-0.57431 0.19143,-0.67002 0.28715,-1.43576 0.47858,-2.10578 0,-0.19144 0.0957,-0.38287 0.0957,-0.57431 0,-0.0957 -0.0957,-0.19143 -0.19143,-0.19143 -0.0957,0 -0.19144,0.0957 -0.28715,0.0957 0,0 -0.0957,0 -0.0957,0 -0.0957,-0.0957 -0.0957,-0.19144 0,-0.28716 0,0 0,0 0.0957,0 0.47858,-0.0957 0.95717,-0.28715 1.43576,-0.28715 0.19143,0 0.19143,0 0.19143,0.19144 0,0.28715 -0.0957,0.47858 -0.19143,0.67002 0,0.0957 0,0.19143 -0.0957,0.28715 0,0 0,-0.0957 0.0957,-0.0957 0.19143,-0.28715 0.38287,-0.5743 0.57431,-0.76574 0.28715,-0.19143 0.5743,-0.38287 0.86145,-0.28715 0.38287,0 0.67003,0.19143 0.67003,0.67002 0,0.19144 0,0.38287 0,0.67002 0,0 0,0 0,-0.0957 0.19143,-0.28715 0.38287,-0.5743 0.67002,-0.86145 0.28715,-0.28716 0.57431,-0.38287 0.95718,-0.38287 0.38287,0 0.67002,0.28715 0.67002,0.67002 0,0.38287 0,0.67002 -0.0957,1.05289 -0.0957,0.38287 -0.19143,0.67002 -0.28715,1.0529 0,0.19143 -0.0957,0.38286 -0.0957,0.5743 0,0.19144 0.19144,0.38287 0.38287,0.28715 0.0957,0 0.19144,-0.0957 0.19144,-0.0957 0.0957,0 0.0957,-0.0957 0.19143,-0.0957 0,0 0.0957,0 0.0957,0 0,0 0,0.0957 0,0.0957 0,0 -0.0957,0.0957 -0.0957,0.0957 -0.28715,0.28716 -0.5743,0.38287 -0.95717,0.38287 -0.38287,0 -0.67003,-0.19143 -0.67003,-0.67002 0,-0.28715 0.0957,-0.5743 0.0957,-0.86146 0.0957,-0.38287 0.19144,-0.67002 0.28715,-1.05289 0,-0.19144 0.0957,-0.47859 0.0957,-0.67002 0,-0.0957 0,-0.0957 0,-0.19144 -0.0957,-0.19143 -0.19143,-0.19143 -0.28715,-0.0957 -0.0957,0.0957 -0.19144,0.0957 -0.28715,0.19144 -0.19144,0.19143 -0.38288,0.47858 -0.57431,0.76574 -0.38287,0.5743 -0.57431,1.14861 -0.67002,1.72291 -0.0957,0.28716 -0.0957,0.57431 -0.19144,0.76574 0,0 0,0 0,0 -0.28715,-0.0957 -0.57431,-0.0957 -0.86146,-0.0957 z"
   id="path6"
   inkscape:connector-curvature="0"
   style="fill:#ffffff;stroke-width:1" /><path
   class="st0"
   d="m 128.21844,134.83794 c 0.0957,-0.28716 0.0957,-0.57431 0.19143,-0.76574 0.19144,-0.67003 0.28715,-1.24433 0.38287,-1.91435 0,-0.19144 0.0957,-0.38287 0.0957,-0.57431 0,-0.0957 0,-0.19143 -0.19144,-0.19143 -0.0957,0 -0.19143,0 -0.28715,0.0957 -0.0957,0 -0.0957,0 -0.19143,0 -0.0957,-0.0957 0,-0.19144 0,-0.28716 0,0 0,0 0,0 0.47858,-0.0957 0.95717,-0.28715 1.43576,-0.28715 0.0957,0 0.0957,0 0.0957,0.0957 0,0.28715 -0.0957,0.47859 -0.0957,0.67002 0,0.0957 0,0.19144 -0.0957,0.28716 0,0 0.0957,-0.0957 0.0957,-0.0957 0.19144,-0.28716 0.38287,-0.57431 0.67003,-0.76574 0.28715,-0.19144 0.67002,-0.28716 1.05289,-0.19144 0.38286,0.0957 0.5743,0.38287 0.5743,0.76574 0,0.38287 -0.0957,0.86146 -0.19144,1.24433 -0.0957,0.28715 -0.19144,0.67002 -0.28714,0.95718 0,0.0957 0,0.19143 0,0.38287 0,0.19143 0.19142,0.28715 0.38286,0.19143 0.0957,0 0.0957,-0.0957 0.19143,-0.0957 0.0957,0 0.0957,-0.0957 0.19144,-0.0957 0.0957,0 0.0957,0 0.19143,0 0,0 -0.0957,0.0957 -0.0957,0.0957 -0.28716,0.28715 -0.67003,0.47859 -1.0529,0.47859 -0.38287,0 -0.67002,-0.28715 -0.57429,-0.67003 0,-0.38286 0.0957,-0.76574 0.19142,-1.14861 0.0957,-0.38287 0.19144,-0.76574 0.28715,-1.14861 0,-0.19143 0,-0.28715 0,-0.47858 0,-0.19144 -0.19143,-0.28716 -0.38287,-0.19144 -0.0957,0 -0.28715,0.0957 -0.38287,0.19144 -0.57429,0.5743 -0.95716,1.14861 -1.1486,2.01006 -0.0957,0.47859 -0.19143,0.86146 -0.28715,1.34005 0,0 0,0.0957 0,0.0957 -0.19144,0 -0.47859,0 -0.76574,0 z"
   id="path8"
   inkscape:connector-curvature="0"
   style="fill:#ffffff;stroke-width:1" /><path
   class="st0"
   d="m 68.107817,131.00924 c -0.09572,0.28715 -0.191435,0.5743 -0.191435,0.86145 -0.09572,0.57431 -0.287152,1.14861 -0.38287,1.81864 0,0.19143 0,0.38287 -0.09572,0.5743 0,0.19144 0.191435,0.38287 0.38287,0.28716 0.09572,0 0.09572,-0.0957 0.191435,-0.0957 0.09572,0 0.09572,-0.0957 0.191436,-0.0957 0,0 0.09572,0 0.09572,0 0,0 0,0.0957 0,0.0957 -0.09572,0.0957 -0.09572,0.19143 -0.191435,0.19143 -0.191435,0.19144 -0.478587,0.28715 -0.76574,0.38287 -0.287152,0.0957 -0.478588,-0.0957 -0.574305,-0.28715 -0.09572,-0.19144 -0.09572,-0.47859 -0.09572,-0.67003 0,0 0,0 0,-0.0957 0,0 0,0 0,-0.0957 0,0 0,0.0957 -0.09572,0.0957 -0.191434,0.28716 -0.382869,0.57431 -0.670022,0.76574 -0.38287,0.28716 -0.765741,0.38288 -1.244328,0.28716 -0.287153,-0.0957 -0.478587,-0.28716 -0.574305,-0.57431 0,-0.38287 0,-0.76574 0.09572,-1.05289 0.09572,-0.38288 0.191435,-0.67003 0.287152,-1.0529 0.09572,-0.19143 0.09572,-0.38287 0.09572,-0.5743 0,-0.0957 -0.09572,-0.19144 -0.191435,-0.19144 -0.09572,0 -0.191435,0.0957 -0.287153,0.0957 -0.09572,0 -0.09572,0 -0.09572,-0.0957 0,-0.0957 0,-0.19143 0.09572,-0.19143 0.382871,-0.0957 0.670024,-0.19144 1.052893,-0.28716 0.09572,0 0.191436,0 0.287153,0 0.09572,0 0.09572,0 0.09572,0.0957 0,0.0957 0,0.19144 0,0.28716 -0.191435,0.5743 -0.287153,1.24432 -0.478588,1.81863 -0.09572,0.28715 -0.09572,0.67002 -0.09572,0.95718 0,0.0957 0,0.19144 0,0.19144 0.09572,0.19143 0.191435,0.19143 0.287153,0.19143 0.09572,0 0.287153,-0.0957 0.38287,-0.19143 0.574306,-0.57432 0.957175,-1.24434 1.148611,-2.01008 0.09572,-0.38287 0.191435,-0.86146 0.287153,-1.24433 0,0 0,-0.0957 0.09572,-0.0957 0.38287,-0.0957 0.670023,-0.0957 0.957176,-0.0957 0,0 0,0 0,0 z"
   id="path10"
   inkscape:connector-curvature="0"
   style="fill:#ffffff;stroke-width:1" /><path
   class="st0"
   d="m 52.793009,134.93366 c -0.478587,0 -0.861458,-0.19144 -1.244327,-0.57431 -0.191436,-0.19144 -0.287153,-0.47859 -0.287153,-0.76574 -0.09572,-1.05289 0.574305,-2.10579 1.53148,-2.58437 0.478589,-0.19144 0.957176,-0.28716 1.435763,-0.0957 0.574306,0.19143 0.861458,0.5743 0.957176,1.14861 0.09572,0.86145 -0.191435,1.62719 -0.861458,2.2015 -0.38287,0.47859 -0.861458,0.67002 -1.531481,0.67002 z m -0.478587,-1.53149 c 0,0.28716 0,0.57431 0.09572,0.76574 0.09572,0.19144 0.191435,0.38287 0.478587,0.47859 0.287153,0 0.478588,0 0.670023,-0.19143 0.191435,-0.19144 0.287153,-0.28716 0.38287,-0.47859 0.191436,-0.57431 0.287153,-1.14861 0.287153,-1.81863 0,-0.19144 0,-0.38287 -0.09572,-0.57431 -0.09572,-0.19143 -0.191436,-0.28715 -0.38287,-0.38287 -0.191435,0 -0.382871,0 -0.574306,0.0957 -0.191434,0.19144 -0.38287,0.38287 -0.478587,0.57431 -0.287153,0.47859 -0.287153,1.05289 -0.38287,1.53148 z"
   id="path12"
   inkscape:connector-curvature="0"
   style="fill:#ffffff;stroke-width:1" /><path
   class="st0"
   d="m 78.636747,131.77498 c 0,0.47858 -0.09572,0.95717 -0.09572,1.34004 0,0.38287 0,0.67002 0,1.05289 0,0.28716 0.09572,0.28716 0.38287,0.19144 0.191435,-0.0957 0.382871,-0.28715 0.478588,-0.47859 0.478588,-0.5743 0.765741,-1.24433 1.052893,-2.01007 0,-0.0957 0,-0.28715 0.09572,-0.38287 0,0 0,-0.0957 0,-0.0957 0,-0.0957 -0.09572,-0.19143 -0.191435,-0.0957 -0.09572,0 -0.09572,0.0957 -0.191435,0.0957 -0.09572,0 -0.09572,0.0957 -0.191436,0.0957 -0.191434,0 -0.287152,-0.0957 -0.287152,-0.19143 0,-0.0957 0,-0.0957 0.09572,-0.0957 0.09572,-0.19144 0.478587,-0.47859 0.861458,-0.38287 0.38287,0.0957 0.574305,0.38287 0.478587,0.76574 -0.09572,0.38287 -0.191435,0.76574 -0.382869,1.05289 -0.287153,0.67002 -0.765741,1.24433 -1.244329,1.81863 -0.191435,0.19144 -0.478587,0.38287 -0.76574,0.47859 -0.574305,0.19144 -1.052894,-0.0957 -1.052894,-0.76574 0,-0.28715 0,-0.5743 0,-0.86146 0,-0.5743 0.09572,-1.14861 0.09572,-1.62719 0,-0.0957 0,-0.0957 0,-0.19144 0,-0.0957 -0.09572,-0.19144 -0.191435,-0.0957 -0.09572,0 -0.191436,0.0957 -0.287153,0.0957 -0.09572,0 -0.09572,0 -0.191436,-0.0957 0,-0.0957 0,-0.0957 0,-0.19143 0.09572,-0.0957 0.09572,-0.0957 0.191436,-0.0957 0.38287,-0.0957 0.76574,-0.19144 1.148611,-0.0957 0.09572,0 0.191435,0.0957 0.191435,0.19143 0,0.19144 0,0.38287 0,0.57431 z"
   id="path14"
   inkscape:connector-curvature="0"
   style="fill:#ffffff;stroke-width:1" /><path
   class="st0"
   d="m 89.165677,133.49789 c 0.09572,-1.05289 0.574305,-1.91435 1.627198,-2.39294 0.38287,-0.19143 0.670023,-0.19143 1.052893,-0.19143 0.38287,0 0.670022,0.19143 0.861458,0.47859 0.191435,0.38287 0.191435,0.67002 -0.09572,0.86145 -0.191435,0.19144 -0.478587,0.38287 -0.76574,0.47859 -0.574305,0.28715 -1.14861,0.38287 -1.722916,0.57431 -0.09572,0 -0.09572,0 -0.09572,0.19143 0,0.19144 0,0.28715 0,0.47859 0.09572,0.47859 0.478587,0.67002 0.861458,0.5743 0.191435,0 0.382871,-0.19143 0.478587,-0.28715 0.191436,-0.0957 0.287153,-0.28715 0.478589,-0.38287 0.09572,-0.0957 0.191435,-0.0957 0.287152,-0.19143 0,0 0,0 0.09572,0 0.09572,0 0.09572,0 0.09572,0.0957 0,0.0957 -0.09572,0.19143 -0.191435,0.28715 -0.191436,0.28715 -0.478588,0.38287 -0.765741,0.5743 -0.287153,0.19144 -0.574305,0.28716 -0.957175,0.28716 -0.478588,0 -0.861458,-0.0957 -1.244328,-0.47859 0.09572,-0.28715 0,-0.57431 0,-0.95718 z m 1.052892,-0.47859 c 0,0 0,0 0,0 0.478589,-0.0957 0.861458,-0.28715 1.244329,-0.47858 0.191435,-0.0957 0.38287,-0.19144 0.478587,-0.38287 0.09572,-0.0957 0.09572,-0.19144 0.09572,-0.28716 0,-0.19143 -0.09572,-0.47858 -0.287152,-0.5743 -0.09572,-0.0957 -0.287153,-0.19144 -0.382871,-0.0957 -0.287152,0 -0.478587,0.19143 -0.670022,0.38287 -0.191436,0.28715 -0.38287,0.67002 -0.478588,1.05289 0.09572,0.0957 0,0.28715 0,0.38287 z"
   id="path16"
   inkscape:connector-curvature="0"
   style="fill:#ffffff;stroke-width:1" /><path
   class="st0"
   d="m 116.0623,133.49789 c 0.0957,-1.05289 0.57431,-1.91435 1.6272,-2.39294 0.38287,-0.19143 0.67003,-0.19143 1.0529,-0.19143 0.28715,0 0.5743,0.19143 0.76574,0.38287 0.28715,0.38287 0.28715,0.67002 -0.0957,1.05289 -0.19143,0.19144 -0.47859,0.28715 -0.67002,0.38287 -0.57431,0.28715 -1.14861,0.38287 -1.72292,0.57431 -0.0957,0 -0.0957,0 -0.0957,0.0957 0,0.19143 0,0.28715 0,0.47858 0.0957,0.47859 0.47859,0.67003 0.86146,0.57431 0.19144,0 0.38287,-0.19144 0.47859,-0.28715 0.19143,-0.0957 0.28715,-0.28716 0.47859,-0.38287 0.0957,-0.0957 0.19143,-0.0957 0.28715,-0.19144 0.0957,0 0.0957,0 0.19144,0 0,0.0957 0,0.0957 0,0.0957 -0.0957,0.19143 -0.19144,0.28715 -0.28716,0.38287 -0.38287,0.38287 -0.86146,0.5743 -1.43576,0.67002 -0.47859,0.0957 -0.95718,0 -1.34005,-0.47859 0,-0.0957 -0.0957,-0.38287 -0.0957,-0.76574 z m 1.0529,-0.47859 c 0,0 0,0 0,0 0.47859,-0.0957 0.86146,-0.28715 1.24433,-0.47858 0.19143,-0.0957 0.38287,-0.19144 0.47859,-0.38287 0.0957,-0.0957 0.0957,-0.19144 0.0957,-0.28716 0,-0.19143 -0.0957,-0.47858 -0.28715,-0.5743 -0.0957,-0.0957 -0.28715,-0.19144 -0.38287,-0.0957 -0.28715,0 -0.47859,0.19143 -0.67002,0.38287 -0.19144,0.28715 -0.38287,0.67002 -0.47859,0.95717 0,0.19144 0,0.38287 0,0.47859 z"
   id="path18"
   inkscape:connector-curvature="0"
   style="fill:#ffffff;stroke-width:1" /><path
   class="st0"
   d="m 143.34181,129.66919 c -0.0957,0.38287 -0.19144,0.86146 -0.28716,1.24433 0.28716,0 0.57431,0 0.95718,0 0,0.0957 0,0.19143 -0.0957,0.28715 -0.19143,0 -0.38287,0 -0.5743,0 -0.0957,0 -0.28716,0 -0.38287,0 0,0 -0.0957,0 -0.0957,0.0957 -0.19144,0.67002 -0.38287,1.34005 -0.47859,2.01007 -0.0957,0.28715 -0.0957,0.5743 -0.0957,0.86146 0,0 0,0 0,0 0,0.28715 0.19144,0.38287 0.38287,0.28715 0.0957,0 0.19144,-0.0957 0.28716,-0.0957 0.0957,0 0.0957,-0.0957 0.19143,-0.0957 0,0 0.0957,0 0.0957,0 0.0957,0 0.0957,0.0957 0.0957,0.0957 0,0.0957 -0.0957,0.0957 -0.19144,0.19144 -0.28715,0.19143 -0.67002,0.38287 -1.05289,0.38287 -0.38287,0 -0.67003,-0.19144 -0.67003,-0.47859 0,-0.0957 0,-0.28716 0,-0.38287 0,-0.47859 0.19144,-0.95718 0.28716,-1.43577 0.0957,-0.38287 0.19143,-0.76574 0.28715,-1.24432 0,0 0,0 0,-0.0957 -0.19144,0 -0.38287,0 -0.57431,0 0,-0.0957 0,-0.19144 0.0957,-0.19144 0,0 0,0 0,0 0.67003,-0.19143 1.0529,-0.5743 1.24433,-1.24433 0,-0.0957 0.0957,-0.0957 0.0957,-0.0957 0.28715,0 0.38287,-0.0957 0.47859,-0.0957 z"
   id="path20"
   inkscape:connector-curvature="0"
   style="fill:#ffffff;stroke-width:1" /><path
   class="st0"
   d="m 3.8813442,134.16791 c 0,-0.0957 0,-0.28715 0,-0.38286 0.09572,-0.57431 0.1914347,-1.0529 0.2871526,-1.6272 0.1914348,-0.67003 0.3828695,-1.34005 0.5743053,-2.10579 0.09572,-0.38287 0.09572,-0.67002 0.09572,-1.05289 0,-0.0957 -0.09572,-0.19144 -0.1914347,-0.19144 -0.09572,0 -0.1914347,0.0957 -0.2871526,0.0957 -0.09572,0 -0.09572,0 -0.09572,0 0,-0.0957 0,-0.19143 0,-0.19143 0,0 0,0 0,0 0.3828705,-0.0957 0.7657411,-0.19144 1.1486105,-0.28716 0.09572,0 0.1914359,0 0.2871527,0 0.09572,0 0.09572,0 0.09572,0.0957 0,0.28716 0,0.47859 -0.09572,0.76574 -0.1914347,0.95718 -0.4785874,1.81864 -0.6700221,2.77581 -0.09572,0.57431 -0.2871526,1.0529 -0.3828706,1.6272 0,0.19144 -0.09572,0.38287 -0.09572,0.67002 0,0.19144 0.09572,0.28716 0.2871527,0.19144 0.2871526,-0.0957 0.3828705,-0.0957 0.4785885,-0.19144 0.09572,0 0.1914347,-0.0957 0.2871526,-0.0957 0,0 0.09572,0 0.09572,0 0,0 0,0.0957 0,0.0957 -0.09572,0.0957 -0.1914347,0.19144 -0.2871526,0.28716 -0.1914347,0.19143 -0.4785874,0.28715 -0.6700221,0.28715 -0.3828706,0.0957 -0.6700232,-0.19144 -0.7657411,-0.57431 0,0 0,0 0,-0.0957 -0.09572,0 -0.09572,-0.0957 -0.095719,-0.0957 z"
   id="path24"
   inkscape:connector-curvature="0"
   style="fill:#ffffff;stroke-width:1" /><path
   class="st0"
   d="m 14.123121,133.68933 c 0.09572,-1.14861 0.574306,-2.01007 1.722916,-2.58438 0.38287,-0.19143 0.76574,-0.19143 1.148611,-0.19143 0.287152,0 0.574305,0.19143 0.76574,0.38287 0.287152,0.38287 0.287152,0.76574 -0.09572,1.05289 -0.191435,0.19144 -0.478588,0.28715 -0.670022,0.38287 -0.574306,0.28715 -1.148611,0.38287 -1.722916,0.57431 -0.09572,0 -0.09572,0 -0.09572,0.0957 0,0.19143 0,0.28715 0,0.47858 0.09572,0.47859 0.478588,0.67003 0.861458,0.57431 0.191435,0 0.382871,-0.19144 0.574306,-0.28715 0.191434,-0.0957 0.287152,-0.28716 0.478587,-0.38287 0.09572,-0.0957 0.191436,-0.0957 0.287153,-0.19144 0,0 0.09572,0 0.09572,0 0,0 0,0.0957 0,0.0957 -0.09572,0.19143 -0.191435,0.38287 -0.382871,0.47859 -0.382869,0.28715 -0.76574,0.5743 -1.340045,0.67002 -0.574305,0.0957 -1.052893,0 -1.435763,-0.47859 -0.09572,-0.0957 -0.191435,-0.38287 -0.191435,-0.67002 z m 1.052893,-0.67003 c 0,0 0,0 0,0 0.478587,-0.0957 0.861458,-0.28715 1.244329,-0.47858 0.191434,-0.0957 0.382869,-0.19144 0.478587,-0.38287 0.09572,-0.0957 0.09572,-0.19144 0.09572,-0.28716 0,-0.19143 -0.09572,-0.47858 -0.287153,-0.5743 -0.09572,-0.0957 -0.287152,-0.19144 -0.38287,-0.0957 -0.287153,0 -0.478587,0.19143 -0.670023,0.38287 -0.287153,0.38287 -0.38287,0.76574 -0.478588,1.14861 0,0.19143 0,0.19143 0,0.28715 z"
   id="path26"
   inkscape:connector-curvature="0"
   style="fill:#ffffff;stroke-width:1" /><path
   class="st0"
   d="m 29.725081,105.45265 c 0.574305,0 1.052894,0 1.531481,0 1.052893,0 2.010069,0 3.062961,0 0.09572,0 0.191435,0 0.287153,0.19144 1.340045,2.87152 2.871526,5.64733 4.115855,8.71029 0,0.0957 0.09572,0.0957 0.09572,0.0957 0,-1.43576 -0.09572,-2.96724 -0.09572,-4.403 0,-1.53148 0,-2.96725 0,-4.49873 1.53148,0 3.062961,0 4.690159,0 0,5.64734 0,11.19895 0,16.84629 -0.09572,0 -0.09572,0 -0.191435,0 -1.531481,0 -2.967244,0 -4.498724,0 -0.09572,0 -0.191436,-0.0957 -0.287153,-0.0957 -1.244328,-2.58437 -2.488657,-5.16875 -3.732984,-7.75312 -0.191436,-0.38287 -0.287153,-0.67002 -0.478589,-1.05289 0.191436,2.96724 0.09572,5.93448 0.09572,8.99744 -1.531481,0 -3.062961,0 -4.690159,0 0.09572,-5.74305 0.09572,-11.39038 0.09572,-17.03772 z"
   id="path30"
   inkscape:connector-curvature="0"
   style="fill:#ffffff;stroke-width:1" /><path
   class="st0"
   d="m 116.73233,122.29894 c 0,-5.64734 0,-11.19895 0,-16.84629 0.0957,0 0.19143,0 0.28715,0 1.43576,0 2.87153,0 4.40301,0 0.0957,0 0.19144,0 0.28716,0.0957 1.24431,2.58438 2.48864,5.26447 3.73297,7.84884 0.19144,0.28715 0.28716,0.67002 0.38287,0.95718 0,-1.53149 -0.0957,-2.96725 -0.0957,-4.49873 0,-1.53148 0,-2.96724 0,-4.49872 1.53148,0 3.06296,0 4.69015,0 0,5.64733 0,11.19895 0,16.84629 -0.0957,0 -0.0957,0 -0.19142,0 -1.53149,0 -2.96725,0 -4.49873,0 -0.0957,0 -0.19144,-0.0957 -0.28716,-0.0957 -1.24433,-2.58438 -2.48866,-5.16875 -3.73297,-7.75312 -0.19144,-0.38287 -0.28716,-0.67003 -0.47859,-1.0529 0.19143,2.96725 0.0957,5.93449 0.0957,8.99745 -1.43576,0 -2.96724,0 -4.59444,0 z"
   id="path32"
   inkscape:connector-curvature="0"
   style="fill:#ffffff;stroke-width:1" /><path
   class="st0"
   d="m 66.863489,116.46017 c 0.478588,1.05289 0.861457,2.01007 1.340046,2.96724 0.478587,0.95718 0.861458,1.91435 1.340045,2.96725 -1.722916,0 -3.445831,0 -5.168747,0 -0.478588,-1.14862 -0.861458,-2.20151 -1.340046,-3.35012 -0.191435,-0.47858 -0.38287,-0.95717 -0.574305,-1.43576 -0.191436,-0.38287 -0.191436,-0.38287 -0.670023,-0.38287 0,1.72291 0,3.44583 0,5.07303 -1.722916,0 -3.445832,0 -5.07303,0 0,-5.64734 0,-11.19895 0,-16.84629 0.09572,0 0.191435,0 0.287153,0 2.201503,0 4.403006,0 6.604511,0 0.861458,0 1.627198,0.0957 2.488656,0.28715 1.627197,0.47859 2.775808,1.53148 3.158679,3.15868 0.38287,1.6272 0.38287,3.2544 0,4.78588 -0.478588,1.24433 -1.148611,2.2015 -2.392939,2.77581 z m -5.168748,-2.58437 c 0.382871,0 0.861458,0 1.244328,0 0.670024,0 0.957176,-0.19144 1.148611,-0.86146 0.191435,-0.67002 0.191435,-1.34005 0.191435,-2.01007 0,-0.38287 -0.09572,-0.76574 -0.287153,-1.14861 -0.191435,-0.38287 -0.478587,-0.67002 -0.957175,-0.67002 -0.38287,0 -0.765741,0 -1.14861,0 -0.09572,0 -0.09572,0 -0.191436,0 0,1.62719 0,3.15868 0,4.69016 z"
   id="path34"
   inkscape:connector-curvature="0"
   style="fill:#ffffff;stroke-width:1" /><path
   class="st0"
   d="m 116.0623,113.87579 c 0,1.43577 -0.0957,2.87153 -0.47859,4.30729 -0.47857,1.72292 -1.53147,3.15868 -3.25439,3.82871 -1.14861,0.47858 -2.29722,0.5743 -3.44583,0.47858 -1.0529,-0.0957 -2.10578,-0.28715 -2.96724,-0.76574 -1.43576,-0.76574 -2.20151,-2.01007 -2.68009,-3.54155 -0.38287,-1.34004 -0.47859,-2.68009 -0.47859,-4.02013 0,-1.6272 0.0957,-3.15868 0.47859,-4.69016 0.76574,-2.58438 2.68009,-4.11586 5.45589,-4.30729 1.14861,-0.0957 2.29723,0 3.35012,0.38287 1.72292,0.5743 2.87153,1.81863 3.44584,3.54155 0.47858,1.34004 0.57429,2.68009 0.67001,4.11585 -0.0957,0.19144 -0.0957,0.47859 -0.0957,0.67002 z m -8.23171,0 c 0,0.67003 0,1.34005 0.0957,1.91436 0.0957,0.5743 0.19144,1.14861 0.38287,1.72291 0.19144,0.47859 0.57431,0.76574 1.14861,0.76574 0.57431,0 0.95718,-0.28715 1.14862,-0.76574 0.0957,-0.38287 0.19143,-0.76574 0.28715,-1.05289 0.19143,-1.6272 0.19143,-3.2544 0,-4.8816 -0.0957,-0.47858 -0.19144,-1.05289 -0.38287,-1.43576 -0.19144,-0.57431 -0.76574,-0.86146 -1.43577,-0.67002 -0.5743,0.19143 -0.76574,0.5743 -0.95717,1.14861 -0.28716,1.05289 -0.28716,2.2015 -0.28716,3.25439 z"
   id="path36"
   inkscape:connector-curvature="0"
   style="fill:#ffffff;stroke-width:1" /><path
   class="st0"
   d="m 3.3070389,112.44003 c 0.09572,-1.05289 0.2871527,-2.01007 0.6700221,-2.96724 0.7657411,-2.10579 2.2972211,-3.44583 4.4987255,-3.92442 2.2972215,-0.47859 4.5944415,-0.38287 6.8916625,0.47859 0.670023,0.19143 0.670023,0.28715 0.574305,0.95717 -0.09572,0.95718 -0.191435,2.01007 -0.382869,3.06296 -0.09572,0 -0.09572,0 -0.191436,0 -1.340046,-0.47858 -2.584374,-0.67002 -4.020136,-0.5743 -0.382871,0 -0.670023,0.0957 -1.052894,0.19143 -0.9571746,0.28716 -1.5314799,1.0529 -1.7229157,2.01007 -0.09572,0.28715 -0.09572,0.57431 -0.09572,0.86146 H 3.3070355 Z"
   id="path38"
   inkscape:connector-curvature="0"
   style="fill:#ffffff;stroke-width:1" /><path
   class="st0"
   d="m 16.420343,120.95889 c 0,0.19144 -0.09572,0.28716 -0.191436,0.38287 -0.957175,0.57431 -1.914351,0.76574 -2.967244,0.95718 -1.627197,0.28715 -3.158679,0.28715 -4.7858765,0 -2.5843738,-0.47859 -4.1158549,-2.01007 -4.7858782,-4.49873 -0.09572,-0.47858 -0.2871526,-0.95717 -0.2871526,-1.53148 h 5.2644655 c 0,0.0957 0,0.19144 0.09572,0.28716 0.09572,0.38287 0.2871526,0.76574 0.4785873,1.05289 0.3828706,0.5743 0.9571765,0.86146 1.6271985,0.86146 0.287152,0 0.478588,0 0.765741,0 0.09572,0 0.191435,-0.0957 0.191435,-0.19144 0,-0.86146 0,-1.81863 0,-2.77581 v -3.25439 l 4.594442,2.29722 c 0,2.29722 0,4.30729 0,6.41307 z"
   id="path40"
   inkscape:connector-curvature="0"
   style="fill:#ffffff;stroke-width:1" /><path
   class="st0"
   d="m 84.284082,122.29894 c -0.09572,0 -0.191435,0 -0.287153,0 -1.53148,0 -3.158679,0 -4.690159,0 -0.191436,0 -0.287153,0 -0.287153,-0.28715 -0.09572,-0.76574 -0.287152,-1.6272 -0.38287,-2.39294 0,-0.0957 0,-0.19144 -0.09572,-0.19144 -0.09572,0 -0.09572,0 -0.191435,0 -0.957176,0 -2.010069,0 -2.967244,0 -0.191435,0 -0.287153,0.0957 -0.287153,0.19144 -0.191435,0.86146 -0.287153,1.72291 -0.478587,2.58437 -1.722916,0 -3.445832,0 -5.168748,0 1.435763,-5.64733 2.871526,-11.19895 4.30729,-16.84629 2.010068,0 4.020137,0 6.125923,0 1.435763,5.74306 2.967243,11.29467 4.403007,16.94201 z m -8.423144,-6.60451 c 0.670022,0 1.340046,0 2.010069,0 -0.287153,-2.01007 -0.670023,-3.92442 -0.957176,-5.93449 0,0 0,0 -0.09572,0 -0.287153,2.01007 -0.670022,4.02014 -0.957175,5.93449 z"
   id="path42"
   inkscape:connector-curvature="0"
   style="fill:#ffffff;stroke-width:1" /><path
   class="st0"
   d="m 28.672188,105.45265 c 0,1.34005 0,2.68009 0,4.11586 -1.818634,0 -3.541549,0 -5.360182,0 0,0.76574 0,1.53148 0,2.29722 1.627198,0 3.254396,0 4.785877,0 0,1.34004 0,2.58437 0,3.92442 -1.627198,0 -3.158679,0 -4.785877,0 0,0.76574 0,1.53148 0,2.39293 1.818633,0 3.637266,0 5.4559,0 0,1.34005 0,2.77581 0,4.11586 -3.541549,0 -6.987381,0 -10.528931,0 0,-5.64734 0,-11.19895 0,-16.84629 3.445832,0 6.891664,0 10.433213,0 z"
   id="path44"
   inkscape:connector-curvature="0"
   style="fill:#ffffff;stroke-width:1" /><path
   class="st0"
   d="m 45.039889,122.29894 c 0,-5.64734 0,-11.19895 0,-16.84629 3.445832,0 6.98738,0 10.433212,0 0,1.34005 0,2.77581 0,4.11586 -1.818634,0 -3.54155,0 -5.360183,0 0,0.76574 0,1.53148 0,2.29722 1.627198,0 3.254396,0 4.785877,0 0,1.34004 0,2.58437 0,3.92442 -1.627197,0 -3.254397,0 -4.785877,0 0,0.76574 0,1.53148 0,2.39293 1.818633,0 3.637267,0 5.455901,0 0,1.43577 0,2.77581 0,4.11586 -3.445832,0 -6.987382,0 -10.52893,0 z"
   id="path46"
   inkscape:connector-curvature="0"
   style="fill:#ffffff;stroke-width:1" /><path
   class="st0"
   d="m 135.78012,117.99165 c 0.86146,0.19143 1.6272,0.38287 2.48866,0.57431 0.86146,0.19143 1.72291,0.19143 2.68009,0.0957 0.76574,-0.0957 0.86145,-0.67003 0.67002,-1.14862 -0.0957,-0.38287 -0.28715,-0.5743 -0.57431,-0.76574 -0.5743,-0.38286 -1.24433,-0.67002 -1.81862,-1.05289 -0.67003,-0.38287 -1.34005,-0.76574 -2.01007,-1.24433 -1.14861,-0.95717 -1.6272,-2.2015 -1.72292,-3.63726 -0.0957,-0.76574 -0.0957,-1.53148 0.19143,-2.29722 0.38288,-1.53148 1.43577,-2.39294 2.87153,-2.87153 0.95717,-0.28715 1.91435,-0.38287 2.87152,-0.38287 1.53149,0 3.06297,0.28715 4.49873,0.86146 0.19144,0.0957 0.28716,0.19143 0.19144,0.38287 -0.19144,1.05289 -0.28715,2.2015 -0.38287,3.25439 -0.57431,-0.19143 -1.14861,-0.38287 -1.81864,-0.47858 -0.86146,-0.19144 -1.72291,-0.28716 -2.58437,-0.0957 -0.28716,0 -0.67003,0.0957 -0.76574,0.47858 -0.19144,0.38287 -0.0957,0.76574 0.19143,1.0529 0.19144,0.19143 0.38287,0.38287 0.57431,0.47858 0.5743,0.38287 1.24433,0.67003 1.91435,1.0529 0.67002,0.38287 1.24433,0.76574 1.81864,1.24432 1.05289,0.86146 1.53148,2.10579 1.6272,3.44584 0.0957,0.67002 0,1.43576 -0.0957,2.10578 -0.38287,1.72292 -1.43577,2.68009 -3.06297,3.2544 -1.05289,0.28715 -2.2015,0.38287 -3.2544,0.38287 -1.62719,0 -3.15867,-0.28715 -4.59444,-0.95718 -0.38287,-0.19143 -0.38287,-0.0957 -0.28715,-0.5743 0.19144,-1.05289 0.28715,-2.10579 0.38287,-3.15868 0,0 0,0 0,0 z"
   id="path48"
   inkscape:connector-curvature="0"
   style="fill:#ffffff;stroke-width:1" /><path
   class="st0"
   d="m 86.29415,122.29894 c 0,-4.21157 0,-8.32743 0,-12.539 -1.244327,0 -2.488656,0 -3.732984,0 0,-1.43576 0,-2.87153 0,-4.40301 4.211573,0 8.423144,0 12.538998,0 0,1.43577 0,2.87153 0,4.40301 -1.244327,0 -2.488656,0 -3.732984,0 0,4.11585 0,8.32743 0,12.539 -1.722916,0 -3.350114,0 -5.07303,0 z"
   id="path50"
   inkscape:connector-curvature="0"
   style="fill:#ffffff;stroke-width:1" /><path
   class="st0"
   d="m 101.22609,105.45265 c 0,5.64734 0,11.19895 0,16.84629 -1.722918,0 -3.350116,0 -5.073032,0 0,-5.64734 0,-11.19895 0,-16.84629 1.722916,0 3.350114,0 5.073032,0 z"
   id="path52"
   inkscape:connector-curvature="0"
   style="fill:#ffffff;stroke-width:1" /><path
   class="st0"
   d="m 21.58909,104.39976 c -0.287153,-0.67002 -0.478588,-1.24433 -0.765741,-1.81863 1.435763,-1.0529 2.967244,-2.10579 4.403008,-3.158684 0.478587,1.052894 0.957175,2.105784 1.435763,3.158684 -1.627198,0.5743 -3.350114,1.24432 -5.07303,1.81863 z"
   id="path54"
   inkscape:connector-curvature="0"
   style="fill:#ffffff;stroke-width:1" /><path
   class="st0"
   d="m 52.122987,99.422446 c 0.478587,1.052894 0.957175,2.105784 1.435763,3.158684 -1.722916,0.5743 -3.445832,1.24432 -5.168747,1.81863 -0.287153,-0.57431 -0.478588,-1.24433 -0.76574,-1.81863 1.53148,-1.0529 2.967243,-2.10579 4.498724,-3.158684 z"
   id="path56"
   inkscape:connector-curvature="0"
   style="fill:#ffffff;stroke-width:1" /><path
   class="st0"
   d="m 5.60426,112.63147 v 3.44583 H 3.5941916 c -0.09572,-1.0529 -0.1914359,-2.10579 -0.09572,-3.44583 h 2.1057862 m 0.2871526,-0.19144 H 3.3070366 c 0,0 0,0.0957 0,0.0957 -0.09572,1.24433 -0.09572,2.58437 0.09572,3.8287 h 2.488657 z"
   id="path58"
   inkscape:connector-curvature="0"
   style="fill:#ffffff;stroke-width:1" /><path
   class="st0"
   d="m 8.1886338,112.63147 c -0.09572,1.14861 -0.09572,2.29722 0.09572,3.44583 h -2.201503 v -3.44583 h 2.1057864 m 0.2871527,-0.19144 H 5.8914161 v 3.92442 H 8.6672246 C 8.284354,115.02441 8.284354,113.68436 8.4757899,112.44003 Z"
   id="path60"
   inkscape:connector-curvature="0"
   style="fill:#ffffff;stroke-width:1" /><polyline
   class="st1"
   points="9,64.6 9,64.9 9,68.3   "
   id="polyline62"
   style="fill:#ffffff;stroke-width:1.04474056"
   transform="matrix(0.95717545,0,0,0.95717545,3.2113212,50.223627)" /><path
   class="st0"
   d="m 70.979343,142.30391 v 1.24432 H 47.719979 v -1.24432 h 23.259364 m 0.957175,-0.95718 H 46.762805 v 3.15868 h 25.173713 z"
   id="path66"
   inkscape:connector-curvature="0"
   style="fill:#ffffff;stroke-width:1" /><rect
   style="fill:#ffffff;stroke-width:1"
   id="rect70"
   height="3.158679"
   width="43.742916"
   class="st0"
   transform="scale(-1)"
   y="-144.6263"
   x="-115.689" /><path
   class="st0"
   d="m 145.16044,142.30391 v 1.24432 h -28.52383 v -1.24432 h 28.52383 m 0.95718,-0.95718 h -30.43819 v 3.15868 h 30.43819 z"
   id="path72"
   inkscape:connector-curvature="0"
   style="fill:#ffffff;stroke-width:1" /><path
   style="fill:#ffffff;stroke-width:1"
   inkscape:connector-curvature="0"
   id="path76"
   d="m 133.67433,112.2486 c 0.76574,0.19143 1.24433,0.86146 1.24433,1.6272 0,0.76574 -0.5743,1.43576 -1.24433,1.62719 v -3.25439 m -0.47858,-0.57431 v 4.40301 c 1.24432,0 2.2015,-0.95718 2.2015,-2.2015 0,-1.24433 -1.05289,-2.20151 -2.2015,-2.20151 z"
   class="st0" /><path
   style="fill:#ffffff;stroke-width:1"
   inkscape:connector-curvature="0"
   id="path78"
   d="m 132.71716,112.2486 v 3.35011 c -0.76574,-0.19143 -1.24432,-0.86146 -1.24432,-1.6272 0,-0.86145 0.47858,-1.53148 1.24432,-1.72291 m 0.47859,-0.57431 c -1.24433,0 -2.2015,0.95718 -2.2015,2.20151 0,1.24432 0.95717,2.2015 2.2015,2.2015 z"
   class="st0" /><rect
   style="fill:#ffffff;stroke-width:1"
   id="rect80"
   height="3.158679"
   width="43.360046"
   class="st0"
   y="141.34674"
   x="3.4984732" />
</svg>