<?xml version="1.0" encoding="UTF-8" standalone="no"?>
<!-- Generator: Adobe Illustrator 25.0.1, SVG Export Plug-In . SVG Version: 6.00 Build 0)  -->

<svg
   xmlns:dc="http://purl.org/dc/elements/1.1/"
   xmlns:cc="http://creativecommons.org/ns#"
   xmlns:rdf="http://www.w3.org/1999/02/22-rdf-syntax-ns#"
   xmlns:svg="http://www.w3.org/2000/svg"
   xmlns="http://www.w3.org/2000/svg"
   xmlns:sodipodi="http://sodipodi.sourceforge.net/DTD/sodipodi-0.dtd"
   xmlns:inkscape="http://www.inkscape.org/namespaces/inkscape"
   version="1.1"
   id="Calque_1"
   x="0px"
   y="0px"
   viewBox="0 0 150 150"
   style="enable-background:new 0 0 150 150;"
   xml:space="preserve"
   sodipodi:docname="logo-nord-en-commun.svg"
   inkscape:version="0.92.5 (2060ec1f9f, 2020-04-08)"><metadata
   id="metadata89"><rdf:RDF><cc:Work
       rdf:about=""><dc:format>image/svg+xml</dc:format><dc:type
         rdf:resource="http://purl.org/dc/dcmitype/StillImage" /><dc:title /></cc:Work></rdf:RDF></metadata><defs
   id="defs87">
	
	
	
	
	
		
	
	
	
	

		
	
		
	
		
		
		
		
		
		
		
		
		
		
		
		
		
		
		
		
		
	
		
		
	
		
		
		
		
		
		
		
		
		
	<style
   id="style846">.cls-1{fill:#fff;}</style></defs><sodipodi:namedview
   pagecolor="#ffffff"
   bordercolor="#666666"
   borderopacity="1"
   objecttolerance="10"
   gridtolerance="10"
   guidetolerance="10"
   inkscape:pageopacity="0"
   inkscape:pageshadow="2"
   inkscape:window-width="1855"
   inkscape:window-height="1056"
   id="namedview85"
   showgrid="false"
   inkscape:zoom="2.2250293"
   inkscape:cx="104.81127"
   inkscape:cy="25.321421"
   inkscape:window-x="65"
   inkscape:window-y="24"
   inkscape:window-maximized="1"
   inkscape:current-layer="Calque_1" />
<style
   type="text/css"
   id="style2">
	.st0{fill:#043054;}
	.st1{fill:none;}
</style>

<g
   id="g901"
   transform="matrix(0.08411541,0,0,0.08411541,-9.3903816,80.848562)"
   style="stroke-width:11.88842773"><path
     id="path850"
     d="M 359.83,253.22 V 494.38 H 314 L 193.77,348 V 494.38 H 138.65 V 253.22 h 46.16 L 304.7,399.64 V 253.22 Z"
     class="cls-1"
     inkscape:connector-curvature="0"
     style="fill:#ffffff;stroke-width:11.88842773" /><path
     id="path852"
     d="m 399.42,401.71 c 0,-55.81 43.06,-95.43 102,-95.43 58.94,0 101.58,39.62 101.58,95.43 0,55.81 -42.72,95.43 -101.63,95.43 -58.91,0 -101.95,-39.62 -101.95,-95.43 z m 149.17,0 c 0,-32 -20.33,-51.33 -47.2,-51.33 -26.87,0 -47.54,19.29 -47.54,51.33 0,32.04 20.67,51.29 47.54,51.29 26.87,0 47.2,-19.25 47.2,-51.29 z"
     class="cls-1"
     inkscape:connector-curvature="0"
     style="fill:#ffffff;stroke-width:11.88842773" /><path
     id="path854"
     d="m 753.89,306.28 v 49.61 c -4.47,-0.35 -7.92,-0.69 -12,-0.69 -29.63,0 -49.27,16.19 -49.27,51.67 v 87.51 H 638.83 V 309 h 51.33 v 24.46 c 13.09,-17.88 35.14,-27.18 63.73,-27.18 z"
     class="cls-1"
     inkscape:connector-curvature="0"
     style="fill:#ffffff;stroke-width:11.88842773" /><path
     id="path856"
     d="M 973,238.75 V 494.38 H 921.66 V 473 c -13.43,16.2 -33.07,24.12 -57.87,24.12 -52.37,0 -92.68,-37.21 -92.68,-95.43 0,-58.22 40.31,-95.43 92.68,-95.43 22.73,0 42,7.23 55.46,22.39 v -89.9 z m -52.71,163 c 0,-32 -20.67,-51.33 -47.19,-51.33 -26.88,0 -47.55,19.29 -47.55,51.33 0,32.04 20.66,51.25 47.54,51.25 26.52,0 47.19,-19.25 47.19,-51.29 z"
     class="cls-1"
     inkscape:connector-curvature="0"
     style="fill:#ffffff;stroke-width:11.88842773" /><path
     id="path858"
     d="m 186.89,674.35 v 62.71 c 10.32,-2.31 16.64,-11.1 16.64,-23.73 0,-8.78 -2.62,-15.1 -8,-20.8 l 13.87,-12.79 c 8.78,7.71 13.4,19.26 13.4,34.21 0,28.65 -18,47.3 -42.68,47.3 -24.8,0 -42.67,-19 -42.67,-44.22 0,-24.34 16.33,-43.14 43,-43.14 1.82,0 4.44,0.31 6.44,0.46 z m -14,63 v -40.81 c -10.48,1.69 -17.25,9.55 -17.25,20.33 -0.02,10.94 6.6,18.8 17.23,20.5 z"
     class="cls-1"
     inkscape:connector-curvature="0"
     style="fill:#ffffff;stroke-width:11.88842773" /><path
     id="path860"
     d="m 174.1,573.14 h 47.46 v 24 H 177.8 c -13.4,0 -19.57,6.17 -19.57,16.8 0,11.55 7.09,19.87 22.34,19.87 h 41 v 24 h -82.9 v -23 h 9.7 c -7.08,-6.47 -10.93,-16.18 -10.93,-27.42 0,-19.46 11.4,-34.25 36.66,-34.25 z"
     class="cls-1"
     inkscape:connector-curvature="0"
     style="fill:#ffffff;stroke-width:11.88842773" /><path
     id="path862"
     d="m 273.13,665.81 c 0,-55.81 43.06,-95.42 103.35,-95.42 38.93,0 69.59,16.87 83,47.19 L 417.83,640 c -10,-17.58 -24.81,-25.5 -41.69,-25.5 -27.22,0 -48.58,18.95 -48.58,51.33 0,32.38 21.36,51.34 48.58,51.34 16.88,0 31.69,-7.59 41.69,-25.5 l 41.68,22.74 c -13.44,29.63 -44.1,46.86 -83,46.86 -60.32,-0.02 -103.38,-39.65 -103.38,-95.46 z"
     class="cls-1"
     inkscape:connector-curvature="0"
     style="fill:#ffffff;stroke-width:11.88842773" /><path
     id="path864"
     d="m 474.3,665.81 c 0,-55.81 43.07,-95.42 102,-95.42 58.93,0 101.61,39.61 101.61,95.42 0,55.81 -42.72,95.44 -101.63,95.44 -58.91,0 -101.98,-39.63 -101.98,-95.44 z m 149.18,0 c 0,-32 -20.33,-51.33 -47.2,-51.33 -26.87,0 -47.54,19.29 -47.54,51.33 0,32.04 20.67,51.34 47.54,51.34 26.87,0 47.2,-19.3 47.2,-51.34 z"
     class="cls-1"
     inkscape:connector-curvature="0"
     style="fill:#ffffff;stroke-width:11.88842773" /><path
     id="path866"
     d="m 1026.88,652.38 v 106.11 h -53.75 v -97.84 c 0,-30 -13.43,-43.76 -35.13,-43.76 -24.12,0 -41,15.5 -41,48.58 v 93 h -53.75 v -97.82 c 0,-30 -12.74,-43.76 -35.14,-43.76 -23.77,0 -40.65,15.5 -40.65,48.58 v 93 H 713.72 V 573.14 h 51.33 v 21.36 c 13.78,-15.85 34.45,-24.11 58.22,-24.11 25.84,0 47.89,10 61,30.31 14.81,-19 38.93,-30.31 66.84,-30.31 44.07,0 75.77,25.49 75.77,81.99 z"
     class="cls-1"
     inkscape:connector-curvature="0"
     style="fill:#ffffff;stroke-width:11.88842773" /><path
     id="path868"
     d="m 1388.23,652.38 v 106.11 h -53.74 v -97.84 c 0,-30 -13.44,-43.76 -35.14,-43.76 -24.12,0 -41,15.5 -41,48.58 v 93 h -53.74 v -97.82 c 0,-30 -12.75,-43.76 -35.14,-43.76 -23.77,0 -40.65,15.5 -40.65,48.58 v 93 h -53.75 V 573.14 h 51.33 v 21.36 c 13.78,-15.85 34.46,-24.11 58.23,-24.11 25.84,0 47.89,10 61,30.31 14.81,-19 38.93,-30.31 66.83,-30.31 44.08,0 75.77,25.49 75.77,81.99 z"
     class="cls-1"
     inkscape:connector-curvature="0"
     style="fill:#ffffff;stroke-width:11.88842773" /><path
     id="path870"
     d="m 1623.15,573.14 v 185.35 h -51 v -22 c -14.12,16.19 -34.79,24.81 -57.53,24.81 -46.51,0 -79.24,-26.19 -79.24,-83.38 V 573.14 h 53.75 V 670 c 0,31 13.78,44.79 37.55,44.79 24.8,0 42.72,-15.85 42.72,-50 v -91.65 z"
     class="cls-1"
     inkscape:connector-curvature="0"
     style="fill:#ffffff;stroke-width:11.88842773" /><path
     id="path872"
     d="m 1862.56,652.38 v 106.11 h -53.74 v -97.84 c 0,-30 -13.78,-43.76 -37.56,-43.76 -25.83,0 -44.43,15.85 -44.43,50 v 91.64 h -53.75 V 573.14 h 51.33 v 21.7 c 14.47,-15.84 36.18,-24.45 61.32,-24.45 43.76,0 76.83,25.49 76.83,81.99 z"
     class="cls-1"
     inkscape:connector-curvature="0"
     style="fill:#ffffff;stroke-width:11.88842773" /><circle
     id="circle874"
     r="89.019997"
     cy="401.70999"
     cx="1773.55"
     class="cls-1"
     style="fill:#ffffff;stroke-width:11.88842773" /><circle
     id="circle876"
     r="89.019997"
     cy="401.70999"
     cx="1485.3199"
     class="cls-1"
     style="fill:#ffffff;stroke-width:11.88842773" /><circle
     id="circle878"
     r="90.190002"
     cy="401.70999"
     cx="1197.09"
     class="cls-1"
     style="fill:#ffffff;stroke-width:11.88842773" /></g></svg>