<?xml version="1.0" encoding="UTF-8" standalone="no"?>
<!-- Generator: Adobe Illustrator 24.1.0, SVG Export Plug-In . SVG Version: 6.00 Build 0)  -->

<svg
   xmlns:dc="http://purl.org/dc/elements/1.1/"
   xmlns:cc="http://creativecommons.org/ns#"
   xmlns:rdf="http://www.w3.org/1999/02/22-rdf-syntax-ns#"
   xmlns:svg="http://www.w3.org/2000/svg"
   xmlns="http://www.w3.org/2000/svg"
   xmlns:sodipodi="http://sodipodi.sourceforge.net/DTD/sodipodi-0.dtd"
   xmlns:inkscape="http://www.inkscape.org/namespaces/inkscape"
   version="1.1"
   id="Calque_1"
   x="0px"
   y="0px"
   viewBox="0 0 812.1436 259.99999"
   xml:space="preserve"
   sodipodi:docname="logo-nord-en-commun-douaisis.svg"
   width="812.14362"
   height="260"
   inkscape:version="0.92.5 (2060ec1f9f, 2020-04-08)"><metadata
   id="metadata19"><rdf:RDF><cc:Work
       rdf:about=""><dc:format>image/svg+xml</dc:format><dc:type
         rdf:resource="http://purl.org/dc/dcmitype/StillImage" /><dc:title></dc:title></cc:Work></rdf:RDF></metadata><defs
   id="defs17" /><sodipodi:namedview
   pagecolor="#ffffff"
   bordercolor="#666666"
   borderopacity="1"
   objecttolerance="10"
   gridtolerance="10"
   guidetolerance="10"
   inkscape:pageopacity="0"
   inkscape:pageshadow="2"
   inkscape:window-width="1855"
   inkscape:window-height="1056"
   id="namedview15"
   showgrid="false"
   fit-margin-top="30"
   fit-margin-left="30"
   fit-margin-right="30"
   fit-margin-bottom="30"
   inkscape:zoom="0.38366057"
   inkscape:cx="405.95345"
   inkscape:cy="124.37643"
   inkscape:window-x="65"
   inkscape:window-y="24"
   inkscape:window-maximized="1"
   inkscape:current-layer="Calque_1" />
<style
   type="text/css"
   id="style2">
	.st0{fill:#5AB88F;}
	.st1{fill:#102335;}
	.st2{fill:#E73452;}
</style>
<g
   id="g12"
   transform="matrix(2.1119324,0,0,2.1119324,-482.43928,-498.82787)"
   style="stroke-width:0.47349998">
	<path
   class="st0"
   d="m 298.32,327.3 c -1.33,1.09 -3.11,1.63 -5.33,1.63 -1.29,0 -2.47,-0.26 -3.53,-0.77 -1.07,-0.51 -1.99,-1.22 -2.76,-2.13 -0.78,-0.91 -1.38,-2 -1.8,-3.26 -0.42,-1.27 -0.63,-2.65 -0.63,-4.16 v -0.13 c 0,-1.38 0.21,-2.69 0.63,-3.93 0.42,-1.24 1.01,-2.33 1.77,-3.26 0.76,-0.93 1.67,-1.67 2.73,-2.2 1.07,-0.53 2.27,-0.8 3.6,-0.8 2.13,0 3.85,0.52 5.16,1.57 1.31,1.04 2.41,2.41 3.3,4.1 l 12.86,-7.53 c -0.98,-1.78 -2.14,-3.41 -3.5,-4.9 -1.36,-1.49 -2.91,-2.76 -4.66,-3.83 -1.76,-1.07 -3.71,-1.9 -5.86,-2.5 -2.15,-0.6 -4.52,-0.9 -7.1,-0.9 -3.46,0 -6.71,0.61 -9.73,1.83 -3.02,1.22 -5.65,2.92 -7.89,5.1 -2.24,2.18 -4,4.75 -5.26,7.73 -1.27,2.98 -1.9,6.2 -1.9,9.66 v 0.13 c 0,3.6 0.66,6.89 1.97,9.86 1.31,2.98 3.07,5.53 5.3,7.66 2.22,2.13 4.78,3.78 7.69,4.93 2.91,1.15 5.99,1.73 9.23,1.73 2.89,0 5.47,-0.33 7.76,-1 2.29,-0.67 4.33,-1.57 6.13,-2.7 1.8,-1.13 3.36,-2.47 4.7,-4 1.33,-1.53 2.49,-3.16 3.46,-4.9 l -12.86,-7.26 c -1,1.73 -2.15,3.14 -3.48,4.23 z m 52.99,-17.02 c -1.8,-1.73 -3.95,-3.1 -6.46,-4.1 -2.51,-1 -5.25,-1.5 -8.23,-1.5 -3.02,0 -5.79,0.51 -8.29,1.53 -2.51,1.02 -4.66,2.4 -6.46,4.13 -1.8,1.73 -3.21,3.75 -4.23,6.06 -1.02,2.31 -1.53,4.75 -1.53,7.33 v 0.13 c 0,2.58 0.5,5.01 1.5,7.3 1,2.29 2.4,4.3 4.2,6.03 1.8,1.73 3.95,3.1 6.46,4.1 2.51,1 5.25,1.5 8.23,1.5 2.98,0 5.73,-0.51 8.26,-1.53 2.53,-1.02 4.7,-2.4 6.5,-4.13 1.8,-1.73 3.21,-3.75 4.23,-6.06 1.02,-2.31 1.53,-4.75 1.53,-7.33 v -0.13 c 0,-2.58 -0.5,-5.01 -1.5,-7.29 -1.01,-2.3 -2.41,-4.31 -4.21,-6.04 z m -8.82,13.59 c 0,1.71 -0.56,3.19 -1.67,4.42 -1.11,1.23 -2.51,1.85 -4.2,1.85 -1.69,0 -3.11,-0.62 -4.26,-1.85 -1.15,-1.23 -1.73,-2.75 -1.73,-4.55 v -0.13 c 0,-1.71 0.55,-3.19 1.66,-4.42 1.11,-1.23 2.51,-1.85 4.2,-1.85 1.69,0 3.11,0.62 4.26,1.85 1.15,1.23 1.73,2.75 1.73,4.55 v 0.13 z m 228.32,-15.66 c -2.22,-2.35 -5.25,-3.53 -9.1,-3.53 -1.29,0 -2.47,0.17 -3.56,0.5 -1.08,0.33 -2.09,0.78 -3.02,1.33 -0.93,0.56 -1.77,1.19 -2.52,1.9 -0.75,0.71 -1.42,1.44 -1.99,2.2 v -5.06 h -15.19 v 36.38 h 15.19 V 322.8 c 0,-1.55 0.43,-2.76 1.28,-3.63 0.85,-0.87 1.85,-1.3 2.98,-1.3 1.13,0 2.1,0.43 2.89,1.3 0.79,0.87 1.18,2.08 1.18,3.63 v 19.12 h 15.19 v -23.98 c -0.01,-4.13 -1.11,-7.37 -3.33,-9.73 z m -55.11,16.46 c 0,1.56 -0.43,2.76 -1.28,3.63 -0.85,0.87 -1.85,1.3 -2.98,1.3 -1.14,0 -2.1,-0.43 -2.89,-1.3 -0.79,-0.87 -1.18,-2.08 -1.18,-3.63 v -19.12 h -15.19 v 23.98 c 0,4.13 1.11,7.37 3.32,9.73 2.21,2.35 5.25,3.53 9.1,3.53 2.57,0 4.77,-0.58 6.61,-1.73 1.84,-1.15 3.33,-2.49 4.48,-4 v 4.86 h 15.19 V 305.54 H 515.7 Z M 409.61,304.68 c -2.81,0 -5.18,0.57 -7.12,1.7 -1.94,1.13 -3.69,2.57 -5.24,4.3 -1.02,-1.95 -2.43,-3.44 -4.25,-4.46 -1.82,-1.02 -3.96,-1.53 -6.44,-1.53 -2.52,0 -4.69,0.58 -6.51,1.73 -1.82,1.16 -3.3,2.49 -4.45,4 v -4.86 h -15.19 v 36.38 h 15.19 v -19.25 c 0,-1.55 0.42,-2.74 1.26,-3.56 0.84,-0.82 1.81,-1.23 2.91,-1.23 1.1,0 2.04,0.41 2.81,1.23 0.77,0.82 1.16,2.01 1.16,3.56 v 19.25 h 15.19 v -19.25 c 0,-1.55 0.42,-2.74 1.25,-3.56 0.84,-0.82 1.81,-1.23 2.91,-1.23 1.1,0 2.04,0.41 2.81,1.23 0.77,0.82 1.16,2.01 1.16,3.56 v 19.25 h 15.19 v -23.98 c 0,-4.13 -1.13,-7.37 -3.37,-9.73 -2.27,-2.37 -5.35,-3.55 -9.27,-3.55 z m 66.02,0 c -2.81,0 -5.18,0.57 -7.12,1.7 -1.94,1.13 -3.69,2.57 -5.24,4.3 -1.02,-1.95 -2.43,-3.44 -4.25,-4.46 -1.82,-1.02 -3.96,-1.53 -6.44,-1.53 -2.52,0 -4.69,0.58 -6.51,1.73 -1.82,1.16 -3.3,2.49 -4.45,4 v -4.86 h -15.19 v 36.38 h 15.19 v -19.25 c 0,-1.55 0.42,-2.74 1.26,-3.56 0.84,-0.82 1.81,-1.23 2.91,-1.23 1.1,0 2.04,0.41 2.81,1.23 0.77,0.82 1.16,2.01 1.16,3.56 v 19.25 h 15.19 v -19.25 c 0,-1.55 0.42,-2.74 1.25,-3.56 0.84,-0.82 1.81,-1.23 2.91,-1.23 1.1,0 2.04,0.41 2.81,1.23 0.77,0.82 1.16,2.01 1.16,3.56 v 19.25 h 15.19 v -23.98 c 0,-4.13 -1.13,-7.37 -3.37,-9.73 -2.27,-2.37 -5.35,-3.55 -9.27,-3.55 z"
   id="path4"
   inkscape:connector-curvature="0"
   style="fill:#5ab88f;stroke-width:0.16977262" />
	<path
   class="st1"
   d="m 374.63,262.01 c -8.31,0 -14.82,6.61 -14.82,15.05 v 0.11 c 0,8.38 6.46,14.94 14.71,14.94 8.31,0 14.82,-6.61 14.82,-15.05 v -0.11 c 0.01,-8.38 -6.45,-14.94 -14.71,-14.94 z m 11.46,15.16 c 0,6.77 -5.03,12.07 -11.46,12.07 -6.49,0 -11.57,-5.35 -11.57,-12.18 v -0.11 c 0,-6.77 5.03,-12.07 11.46,-12.07 6.49,0 11.57,5.35 11.57,12.18 z m -36.72,8.61 -26.69,-33.65 -0.04,-0.06 h -2.96 v 39.36 h 3.09 V 257 l 27.24,34.37 0.04,0.06 h 2.4 v -39.36 h -3.09 v 33.71 z m 61.74,-23.56 c -4.97,0 -9.58,3.09 -11.99,8.02 v -7.57 h -3.03 v 28.76 h 3.03 v -11.81 c 0,-9.73 6.12,-14.08 12.18,-14.08 h 0.43 v -3.31 l -0.14,-0.01 c -0.16,0.01 -0.32,0 -0.48,0 z m 28.22,6.26 c -2.96,-4.29 -6.85,-6.47 -11.57,-6.47 -6.88,0 -13.99,5.63 -13.99,15.05 v 0.11 c 0,5.53 2.39,9.02 4.39,10.97 2.58,2.52 6.08,3.96 9.6,3.96 4.69,0 8.48,-2.19 11.57,-6.69 v 6.02 h 3.03 V 250.4 h -3.03 z m 0.17,8.63 c 0,7.46 -5.95,12.07 -11.46,12.07 -6.28,0 -11.01,-5.21 -11.01,-12.13 v -0.11 c 0,-7.07 4.53,-12.02 11.01,-12.02 7.08,0 11.46,6.27 11.46,12.07 z m 34.64,0.68 c -1.81,0 -3.3,0.7 -4.35,2.03 v -1.72 h -1.84 v 13.49 h 1.84 v -7.76 c 0,-2.49 1.76,-4.3 4.18,-4.3 2.38,0 3.8,1.53 3.8,4.1 v 7.96 h 1.84 v -8.19 c -0.02,-3.41 -2.16,-5.61 -5.47,-5.61 z m -14.8,0 c -3.6,0 -6.42,3.09 -6.42,7.02 v 0.05 c 0,4 2.85,7.02 6.62,7.02 2.85,0 4.46,-1.35 5.56,-2.52 l 0.21,-0.22 -1.31,-1.15 -0.2,0.21 c -1.23,1.32 -2.56,1.93 -4.21,1.93 -2.5,0 -4.41,-1.83 -4.73,-4.49 h 10.63 l 0.03,-0.26 c 0.03,-0.22 0.03,-0.3 0.03,-0.54 0.01,-4.15 -2.55,-7.05 -6.21,-7.05 z m -4.47,6.14 c 0.33,-2.57 2.15,-4.41 4.42,-4.41 2.82,0 4.06,2.31 4.3,4.41 z"
   id="path6"
   inkscape:connector-curvature="0"
   style="fill:#102335;stroke-width:0.16977262" />
	<g
   id="g10"
   style="stroke-width:0.47349998">
		<path
   class="st2"
   d="M 597.08,345.1 H 244.34 c -0.94,0 -1.7,-0.76 -1.7,-1.7 0,-0.94 0.76,-1.7 1.7,-1.7 h 352.74 c 0.94,0 1.7,0.76 1.7,1.7 0,0.94 -0.76,1.7 -1.7,1.7 z"
   id="path8"
   inkscape:connector-curvature="0"
   style="fill:#e73452;stroke-width:0.47349998" />
	</g>
</g>
</svg>