<?xml version="1.0" encoding="UTF-8" standalone="no"?>
<svg
   xmlns:dc="http://purl.org/dc/elements/1.1/"
   xmlns:cc="http://creativecommons.org/ns#"
   xmlns:rdf="http://www.w3.org/1999/02/22-rdf-syntax-ns#"
   xmlns:svg="http://www.w3.org/2000/svg"
   xmlns="http://www.w3.org/2000/svg"
   xmlns:xlink="http://www.w3.org/1999/xlink"
   xmlns:sodipodi="http://sodipodi.sourceforge.net/DTD/sodipodi-0.dtd"
   xmlns:inkscape="http://www.inkscape.org/namespaces/inkscape"
   width="150"
   height="150"
   viewBox="0 0 150 150"
   version="1.1"
   id="svg26"
   sodipodi:docname="logo-pcf.svg"
   inkscape:version="0.92.5 (2060ec1f9f, 2020-04-08)">
  <metadata
     id="metadata30">
    <rdf:RDF>
      <cc:Work
         rdf:about="">
        <dc:format>image/svg+xml</dc:format>
        <dc:type
           rdf:resource="http://purl.org/dc/dcmitype/StillImage" />
        <dc:title></dc:title>
      </cc:Work>
    </rdf:RDF>
  </metadata>
  <sodipodi:namedview
     pagecolor="#ffffff"
     bordercolor="#666666"
     borderopacity="1"
     objecttolerance="10"
     gridtolerance="10"
     guidetolerance="10"
     inkscape:pageopacity="0"
     inkscape:pageshadow="2"
     inkscape:window-width="1855"
     inkscape:window-height="1056"
     id="namedview28"
     showgrid="false"
     inkscape:zoom="3.5967794"
     inkscape:cx="82.626633"
     inkscape:cy="63.324136"
     inkscape:window-x="65"
     inkscape:window-y="24"
     inkscape:window-maximized="1"
     inkscape:current-layer="svg26" />
  <defs
     id="defs4">
    <path
       id="a"
       d="M 0.25,0.289 H 96.474 V 5.252 H 0.25 Z"
       inkscape:connector-curvature="0" />
    <path
       id="c"
       d="M 0,0.314 H 57.865 V 61.352 H 0 Z"
       inkscape:connector-curvature="0" />
    <mask
       id="d"
       fill="#fff">
      <use
         xlink:href="#c"
         id="use15"
         x="0"
         y="0"
         width="100%"
         height="100%" />
    </mask>
    <mask
       id="b"
       fill="#fff">
      <use
         xlink:href="#a"
         id="use8"
         x="0"
         y="0"
         width="100%"
         height="100%" />
    </mask>
  </defs>
  <path
     style="opacity:1;fill:#ffffff;fill-opacity:1;stroke:none;stroke-width:31.16700363;stroke-miterlimit:4;stroke-dasharray:none;stroke-dashoffset:0;stroke-opacity:1"
     d="m 57.770155,46.530021 c -6.894179,-0.114726 -11.10575,3.674578 -11.10575,3.674578 -9.110291,6.934983 -6.25922,18.86496 -6.25922,18.86496 1.334172,7.530957 6.420594,12.478756 6.420594,12.478756 9.050694,8.684976 19.232682,8.243332 19.232682,8.243332 l -12.087224,11.547543 3.084637,17.65598 -16.142755,-8.34387 -16.171855,8.34387 3.089928,-17.65598 -13.073991,-12.513143 18.034276,-2.558186 4.611083,-8.891477 c -1.908475,-3.40654 -2.439138,-7.587252 -2.439138,-7.587252 L 29.066634,81.148846 2.5429932,84.931891 21.720119,103.28363 17.193693,129.19616 40.897246,116.96079 64.603444,129.20144 60.077018,103.28363 80.9208,83.005977 v -0.0027 C 62.016201,88.029776 52.585002,79.394826 52.585002,79.394826 45.312753,73.425594 45.558591,65.249413 45.558591,65.249413 c 16.684594,-2.8214 15.3253,-18.409935 15.3253,-18.409935 -1.090024,-0.198264 -2.128853,-0.293134 -3.113736,-0.309521 z m -3.492043,6.023769 c 0,0 -1.651586,5.094402 -7.656034,6.708953 0,0 1.713893,-4.956244 7.656034,-6.708953 z m 60.227128,50.6346 c -8.28269,0 -14.31737,5.33467 -14.31737,13.68509 0,8.35178 6.03468,13.68775 14.31737,13.68775 3.6368,0 7.3833,-1.43554 9.59518,-4.52377 l -4.87298,-3.56877 c -1.19737,1.76489 -3.10864,2.79363 -5.47087,2.79363 -4.23413,0 -7.49466,-3.53164 -7.49466,-8.38884 0,-4.85584 3.26008,-8.38618 7.68249,-8.38618 2.17396,0 3.85898,0.77229 5.02113,2.13491 l 4.49733,-3.60845 c -2.24846,-2.83223 -5.99535,-3.82537 -8.95762,-3.82537 z m -36.878069,0.66137 v 26.04746 h 5.843878 v -10.15338 h 4.275105 c 5.584557,0 9.820043,-1.87669 9.820043,-7.98408 0,-6.18053 -4.570531,-7.91 -10.081946,-7.91 z m 50.258939,0.003 v 26.04479 h 5.84652 v -10.15337 h 11.05813 v -5.29891 h -11.05813 v -5.29626 h 11.95759 v -5.29625 z m -44.415061,4.85446 h 3.002627 c 2.248451,0 5.021131,0.36694 5.021131,3.05289 0,2.4286 -2.060135,3.12696 -4.121667,3.12696 h -3.902091 z m 5.542293,30.25641 c -0.986068,0 -1.912687,0.54944 -1.912687,1.60053 0,1.64299 2.351836,1.15603 2.351836,2.06084 2e-6,0.34946 -0.401541,0.51321 -0.764545,0.51321 -0.375279,-5.2e-4 -0.730202,-0.17068 -0.965601,-0.46295 l -0.78571,0.84656 c 0.474072,0.43343 1.044437,0.61904 1.68782,0.61904 1.036184,0 1.933851,-0.52184 1.933851,-1.6217 0,-1.72561 -2.309509,-1.14557 -2.309509,-2.04495 0,-0.36977 0.431849,-0.50793 0.743381,-0.50793 0.269543,0 0.625435,0.10184 0.804227,0.32539 l 0.756609,-0.81217 c -0.425307,-0.36977 -0.970786,-0.51587 -1.539672,-0.51587 z m -42.737824,0.003 c -1.568498,0 -2.708977,1.00931 -2.708977,2.58729 0,1.58204 1.140479,2.58993 2.708977,2.58993 0.686726,0 1.398912,-0.272 1.817449,-0.85714 l -0.923274,-0.67195 c -0.232922,0.34125 -0.624076,0.53982 -1.03703,0.52644 -0.800502,0 -1.41798,-0.6663 -1.41798,-1.58464 0,-0.91835 0.617942,-1.58729 1.455016,-1.58729 0.411764,0 0.730302,0.14476 0.949729,0.4021 l 0.849201,-0.67987 0.0027,-0.003 c -0.426662,-0.53637 -1.136352,-0.72221 -1.695756,-0.72221 z m 5.743351,0 c -1.56579,0 -2.706333,1.00931 -2.706333,2.58729 0,1.58069 1.141834,2.58728 2.708978,2.58728 1.567144,0 2.706332,-1.00659 2.706332,-2.58728 0,-1.57933 -1.140479,-2.58729 -2.708977,-2.58729 z m 79.356631,0 c -1.56849,0 -2.70898,1.00931 -2.70898,2.58729 0,1.38026 0.86919,2.32419 2.13226,2.54231 l 0.0529,-0.0794 h 0.47088 l -0.0794,0.11635 c 0.0451,10e-4 0.0864,0.0108 0.13233,0.0108 0.68673,0 1.39628,-0.27199 1.81482,-0.85712 l -0.92064,-0.67196 c -0.23291,0.34126 -0.62407,0.53982 -1.03702,0.52645 -0.79915,0 -1.41534,-0.6663 -1.41534,-1.58463 0,-0.91835 0.61394,-1.58731 1.45237,-1.58731 0.41041,0 0.7303,0.14477 0.94973,0.40212 l 0.84919,-0.6799 v -0.003 c -0.42259,-0.53637 -1.1337,-0.72222 -1.69311,-0.72222 z m -0.13233,5.16664 c -0.15172,-0.005 -0.30209,-0.0122 -0.44445,-0.0369 l -0.38889,0.56878 0.23017,0.1984 c 0.0802,-0.0346 0.16662,-0.0525 0.25397,-0.0529 0.14222,0 0.35448,0.0688 0.35448,0.23544 0,0.18151 -0.24882,0.22488 -0.46825,0.22488 -0.24109,0 -0.43254,-0.0783 -0.54497,-0.12163 l -0.17724,0.32802 c 0.24922,0.1165 0.60179,0.209 0.88624,0.209 0.36029,0 0.98412,-0.16667 0.98412,-0.6746 0,-0.5147 -0.47436,-0.57672 -0.89154,-0.57672 z m 14.26446,-5.16664 c -0.98607,0 -1.91269,0.54679 -1.91269,1.59787 0,1.64299 2.35183,1.15604 2.35183,2.06083 0,0.34946 -0.40426,0.51587 -0.76455,0.51587 -0.37576,-9.6e-4 -0.73085,-0.17218 -0.9656,-0.46561 l -0.78571,0.84656 c 0.47408,0.43344 1.04174,0.6217 1.68782,0.6217 1.03619,0 1.93385,-0.52185 1.93385,-1.62169 0,-1.72562 -2.31215,-1.14822 -2.31215,-2.04761 0,-0.36978 0.4345,-0.50793 0.74603,-0.50793 0.27089,0 0.62286,0.10457 0.79894,0.32804 l 0.75924,-0.81216 v -0.003 c -0.4253,-0.36977 -0.97084,-0.51321 -1.53701,-0.51321 z m -128.790192,0.12163 v 4.92854 h 1.103168 v -1.92062 h 0.809519 c 1.056501,0 1.857131,-0.35519 1.857131,-1.51058 0,-1.16757 -0.864439,-1.49734 -1.907395,-1.49734 z m 6.351812,0 -2.166653,4.92854 h 1.216924 l 0.417986,-1.04232 h 1.949723 l 0.43386,1.04232 h 1.246023 l -2.182525,-4.92854 z m 14.785619,0 v 4.92854 h 1.105815 v -4.92854 z m 18.510465,0 v 4.92854 h 1.105813 v -3.77776 h 0.01588 l 1.269833,3.77776 h 0.841265 l 1.320097,-3.77776 h 0.01327 v 3.77776 h 1.105813 v -4.92854 h -1.666656 l -1.161366,3.21691 h -0.01587 l -1.156078,-3.21691 z m 7.576671,0 v 4.93119 l 0.0027,-0.003 h 1.105814 v -3.77776 h 0.01587 l 1.269833,3.77776 h 0.841265 l 1.320096,-3.77776 h 0.01328 v 3.77776 h 1.105813 v -4.92853 h -1.666657 l -1.161367,3.2169 h -0.01327 l -1.158723,-3.2169 z m 7.581962,0 v 3.02908 c 0,1.16351 0.722557,2.0238 2.119036,2.0238 1.391059,0 2.113741,-0.86029 2.113741,-2.0238 v -3.02643 l -0.0027,-0.003 h -1.103168 v 2.98673 c 0,0.60546 -0.4255,1.06614 -1.007929,1.06614 -0.587848,0 -1.015866,-0.46068 -1.015866,-1.06614 v -2.98673 z m 6.140174,0 v 4.92854 h 1.103167 v -3.50791 h 0.01587 l 2.190463,3.50791 h 1.44708 v -4.92866 h -1.105747 v 3.42855 h -0.01327 l -2.134907,-3.42855 z m 6.650751,0 v 4.92854 h 1.10588 v -4.92854 z m 12.952298,0 v 4.92854 h 3.53701 v -1.00276 h -2.43113 v -1.00793 h 2.17459 v -1.00263 h -2.17459 v -0.9127 h 2.30158 v -1.00264 z m 8.33592,0 v 4.93119 l 0.003,-0.003 h 1.10316 v -1.92062 h 2.09258 v -1.00266 h -2.09258 v -1.00262 h 2.26189 v -1.00263 z m 12.17983,0 -2.16666,4.92854 h 1.21957 l 0.41799,-1.04232 h 1.94972 l 0.43121,1.04232 h 1.24867 l -2.18517,-4.92854 z m 4.48938,0 v 4.92854 h 1.10581 v -3.50791 h 0.0133 l 2.19311,3.50791 h 1.44443 v -4.92854 h -1.10317 v 3.42854 h -0.0159 l -2.1349,-3.42854 z m 14.05811,0 -2.16665,4.92854 h 1.21957 l 0.41534,-1.04232 h 1.94972 l 0.43386,1.04232 h 1.24867 l -2.18517,-4.92854 z m 4.47352,0 v 4.92854 h 1.10581 v -4.92854 z m -113.245311,0.003 v 4.92589 h 1.103168 v -1.96837 h 0.547683 l 1.050258,1.96824 h 1.325388 l -1.275124,-2.07934 c 0.707043,-0.12462 1.082004,-0.66241 1.082004,-1.35185 0,-1.1459 -0.863466,-1.49469 -1.891522,-1.49469 z m 4.891503,0 v 0.96031 h 1.433854 v 3.96558 h 1.105813 v -3.96823 h 1.431208 v -0.95766 z m 59.356765,0 v 0.96031 h 1.433854 v 3.96558 h 1.103167 v -3.96823 h 1.431207 v -0.95766 z m 18.846433,0 v 4.92589 h 1.10582 v -1.96837 h 0.54497 l 1.05026,1.96824 h 1.32539 l -1.27513,-2.07934 c 0.7084,-0.12462 1.08201,-0.66241 1.08201,-1.35185 0,-1.1459 -0.86347,-1.49469 -1.89153,-1.49469 z m -58.631894,0.87566 c 0.942724,0 1.560837,0.66894 1.560837,1.58729 0,0.91834 -0.618113,1.58729 -1.560837,1.58729 -0.944078,0 -1.560836,-0.66895 -1.560836,-1.58729 0,-0.91835 0.616758,-1.58729 1.560836,-1.58729 z m -23.359639,0.0397 h 0.724862 c 0.404992,0 0.857138,0.077 0.857138,0.57407 0,0.53503 -0.524928,0.54761 -0.928566,0.54761 h -0.653434 v -1.11904 z m 83.097353,0 h 0.72222 c 0.40363,0 0.85978,0.077 0.85978,0.57407 0,0.53503 -0.52487,0.54761 -0.93121,0.54761 h -0.65079 v -1.11904 z m -93.938554,0.003 h 0.56878 c 0.425309,0 0.94973,0.0702 0.94973,0.57671 0,0.46053 -0.388972,0.5926 -0.780419,0.5926 h -0.738091 z m 5.674567,0.51321 0.616398,1.53174 v 0.003 h -1.227506 z m 94.716327,0 0.61375,1.53174 v 0.003 h -1.22485 z m 18.5475,0.003 0.61376,1.53173 h -1.22487 z"
     id="rect878"
     inkscape:connector-curvature="0"
     sodipodi:nodetypes="scccccccccccccccccccccccccscccsssccsssccsccccssscccccccccccccsssccssccccssssccsssscccsscccssssssssccccscccsscccscccccssccssccssscccsssscccsccccssscccccccccccccccccccccccccccccccccccccccccccccccccccssscccssscccccccccccccccccccccccccccccccccccccccccccccccccccccccccccccccccccccccccccccccccccccccccsscccccccccccccccccccccccccccsscsssssccsscccccssccccssscccccccccccccccc" />
</svg>
