<?xml version="1.0" encoding="UTF-8" standalone="no"?>
<svg
   xmlns:dc="http://purl.org/dc/elements/1.1/"
   xmlns:cc="http://creativecommons.org/ns#"
   xmlns:rdf="http://www.w3.org/1999/02/22-rdf-syntax-ns#"
   xmlns:svg="http://www.w3.org/2000/svg"
   xmlns="http://www.w3.org/2000/svg"
   xmlns:sodipodi="http://sodipodi.sourceforge.net/DTD/sodipodi-0.dtd"
   xmlns:inkscape="http://www.inkscape.org/namespaces/inkscape"
   height="150"
   viewBox="105.7 249.6 80.328 63.582"
   width="150"
   version="1.1"
   id="svg20"
   sodipodi:docname="logo-parti-socialiste.svg"
   inkscape:version="0.92.5 (2060ec1f9f, 2020-04-08)">
  <metadata
     id="metadata26">
    <rdf:RDF>
      <cc:Work
         rdf:about="">
        <dc:format>image/svg+xml</dc:format>
        <dc:type
           rdf:resource="http://purl.org/dc/dcmitype/StillImage" />
        <dc:title />
      </cc:Work>
    </rdf:RDF>
  </metadata>
  <defs
     id="defs24">
	
	
	
	
	
	
	

	
	
	
	
	

	

	

	
	
	
	
	
	
	
	
	
	
	
	
	
	
	
</defs>
  <sodipodi:namedview
     pagecolor="#ffffff"
     bordercolor="#666666"
     borderopacity="1"
     objecttolerance="10"
     gridtolerance="10"
     guidetolerance="10"
     inkscape:pageopacity="0"
     inkscape:pageshadow="2"
     inkscape:window-width="1855"
     inkscape:window-height="1056"
     id="namedview22"
     showgrid="false"
     inkscape:zoom="3.0208"
     inkscape:cx="140.73187"
     inkscape:cy="86.978145"
     inkscape:window-x="65"
     inkscape:window-y="24"
     inkscape:window-maximized="1"
     inkscape:current-layer="svg20" />
  <path
     id="path822"
     d="m 120.20085,314.16603 c -0.20438,-0.14864 -0.46449,-0.22295 -0.78035,-0.22295 -0.13005,0 -0.25547,0.0139 -0.38088,0.0372 -0.12542,0.0279 -0.2369,0.0696 -0.3298,0.13005 -0.0975,0.0604 -0.17186,0.13935 -0.23225,0.24154 -0.0557,0.10219 -0.0883,0.22761 -0.0883,0.37625 0,0.13934 0.0418,0.25546 0.12542,0.34372 0.0837,0.0883 0.19509,0.15792 0.33443,0.21366 0.13935,0.0557 0.29728,0.10219 0.47379,0.13935 0.1765,0.0372 0.35301,0.0743 0.53881,0.12077 0.18115,0.0418 0.36231,0.0929 0.53881,0.15329 0.17652,0.0557 0.33444,0.1347 0.47379,0.23224 0.13935,0.0975 0.25082,0.22297 0.33444,0.3716 0.0836,0.14864 0.12541,0.33909 0.12541,0.56668 0,0.24619 -0.0557,0.45521 -0.16258,0.62707 -0.11147,0.17187 -0.25081,0.31586 -0.42268,0.4227 -0.17186,0.11147 -0.36231,0.19044 -0.57597,0.23689 -0.21368,0.0465 -0.4227,0.0743 -0.63172,0.0743 -0.25547,0 -0.50165,-0.0326 -0.72926,-0.0975 -0.2276,-0.065 -0.43198,-0.16258 -0.60384,-0.29263 -0.17187,-0.13006 -0.31121,-0.29728 -0.4134,-0.50166 -0.10219,-0.20438 -0.15329,-0.44592 -0.15329,-0.72461 h 0.58062 c 0,0.19509 0.0372,0.35766 0.11148,0.49701 0.0743,0.13935 0.17187,0.25548 0.29728,0.34373 0.12077,0.0883 0.26476,0.15793 0.42733,0.19973 0.16258,0.0418 0.3298,0.065 0.50166,0.065 0.13934,0 0.27406,-0.0139 0.4134,-0.0372 0.13935,-0.0279 0.26476,-0.0696 0.37624,-0.13006 0.11148,-0.0604 0.19973,-0.14864 0.26941,-0.25547 0.0696,-0.10684 0.10219,-0.24619 0.10219,-0.4134 0,-0.15793 -0.0418,-0.28798 -0.12542,-0.38553 -0.0836,-0.0975 -0.19509,-0.18116 -0.33443,-0.24154 -0.13935,-0.0604 -0.29728,-0.11148 -0.47378,-0.15328 -0.17652,-0.0372 -0.35302,-0.079 -0.53882,-0.12077 -0.18116,-0.0418 -0.36231,-0.0883 -0.53881,-0.13935 -0.17652,-0.0557 -0.33445,-0.12542 -0.47379,-0.21367 -0.13935,-0.0883 -0.25083,-0.19973 -0.33444,-0.33908 -0.0836,-0.13935 -0.12541,-0.31585 -0.12541,-0.52488 0,-0.23224 0.0465,-0.43198 0.144,-0.5992 0.0929,-0.16722 0.2183,-0.30657 0.37623,-0.41804 0.15793,-0.11148 0.33444,-0.19045 0.53417,-0.24618 0.19973,-0.0511 0.40411,-0.079 0.61314,-0.079 0.23689,0 0.4552,0.0279 0.65493,0.0836 0.19973,0.0557 0.38089,0.144 0.52953,0.26476 0.15328,0.12077 0.27405,0.26941 0.3623,0.45521 0.0883,0.18115 0.1347,0.39947 0.144,0.65029 h -0.57597 c -0.0326,-0.32515 -0.15329,-0.56204 -0.35767,-0.71068 z"
     inkscape:connector-curvature="0"
     style="fill:#ffffff;stroke-width:0.53551996" />
  <path
     id="path824"
     d="m 121.95199,314.92781 c 0.0929,-0.28799 0.23226,-0.54346 0.41341,-0.76642 0.1858,-0.22296 0.4134,-0.39947 0.68745,-0.53417 0.27405,-0.1347 0.59456,-0.19974 0.95686,-0.19974 0.36231,0 0.68281,0.065 0.95686,0.19974 0.27405,0.1347 0.50631,0.31121 0.68746,0.53417 0.18579,0.22296 0.32049,0.47843 0.4134,0.76642 0.0929,0.28798 0.13935,0.58991 0.13935,0.90111 0,0.31122 -0.0465,0.61314 -0.13935,0.90113 -0.0929,0.28798 -0.23225,0.54346 -0.4134,0.76641 -0.1858,0.22296 -0.41341,0.39947 -0.68746,0.52953 -0.27405,0.13006 -0.59455,0.19509 -0.95686,0.19509 -0.36695,0 -0.68281,-0.065 -0.95686,-0.19509 -0.27405,-0.13006 -0.5063,-0.30657 -0.68745,-0.52953 -0.1858,-0.22295 -0.32514,-0.47843 -0.41341,-0.76641 -0.0929,-0.28799 -0.13934,-0.58991 -0.13934,-0.90113 0,-0.3112 0.0465,-0.60848 0.13934,-0.90111 z m 0.56205,1.58857 c 0.0604,0.22296 0.15328,0.42734 0.28334,0.60849 0.13006,0.18115 0.29263,0.32514 0.49701,0.43198 0.19973,0.11148 0.44127,0.16257 0.71996,0.16257 0.27871,0 0.52024,-0.0557 0.71998,-0.16257 0.19973,-0.11148 0.36694,-0.25548 0.49701,-0.43198 0.13005,-0.18115 0.22295,-0.38088 0.28334,-0.60849 0.0604,-0.22296 0.0883,-0.4552 0.0883,-0.68281 0,-0.23225 -0.0279,-0.45984 -0.0883,-0.68281 -0.0604,-0.22295 -0.15329,-0.42733 -0.28334,-0.60848 -0.13007,-0.18116 -0.29263,-0.32515 -0.49701,-0.43199 -0.19974,-0.11147 -0.44127,-0.16257 -0.71998,-0.16257 -0.27869,0 -0.52023,0.0557 -0.71996,0.16257 -0.19973,0.11148 -0.36695,0.25548 -0.49701,0.43199 -0.13006,0.18115 -0.22296,0.38088 -0.28334,0.60848 -0.0604,0.22297 -0.0883,0.45521 -0.0883,0.68281 0,0.23225 0.0279,0.45985 0.0883,0.68281 z"
     inkscape:connector-curvature="0"
     style="fill:#ffffff;stroke-width:0.53551996" />
  <path
     id="path826"
     d="m 129.73694,314.18926 c -0.23225,-0.16258 -0.51095,-0.24618 -0.83145,-0.24618 -0.27405,0 -0.51094,0.0511 -0.70603,0.15328 -0.19509,0.10219 -0.35767,0.24154 -0.48308,0.4134 -0.12541,0.17187 -0.21831,0.3716 -0.27869,0.59455 -0.0604,0.22297 -0.0883,0.45521 -0.0883,0.6921 0,0.26012 0.0279,0.51095 0.0883,0.7432 0.0604,0.23224 0.15328,0.43662 0.27869,0.60848 0.12541,0.17187 0.28799,0.31121 0.48772,0.4134 0.19509,0.10219 0.43198,0.15329 0.70604,0.15329 0.19973,0 0.38088,-0.0326 0.53881,-0.0976 0.15793,-0.065 0.29264,-0.15793 0.40411,-0.27869 0.11148,-0.11613 0.20438,-0.26012 0.26476,-0.4227 0.065,-0.16257 0.10219,-0.33908 0.11613,-0.52487 h 0.61313 c -0.0604,0.58061 -0.26011,1.02653 -0.5992,1.35167 -0.33908,0.32051 -0.80357,0.48308 -1.38884,0.48308 -0.35766,0 -0.66887,-0.0604 -0.93363,-0.18115 -0.26477,-0.12077 -0.48772,-0.28799 -0.66423,-0.5063 -0.17651,-0.21367 -0.30657,-0.46914 -0.39483,-0.75713 -0.0883,-0.29263 -0.13005,-0.60384 -0.13005,-0.93828 0,-0.33443 0.0465,-0.65029 0.14399,-0.94293 0.0929,-0.29263 0.23225,-0.5481 0.41341,-0.76641 0.18115,-0.21832 0.40875,-0.39017 0.6828,-0.51559 0.27405,-0.12541 0.58527,-0.19045 0.93829,-0.19045 0.24153,0 0.46913,0.0326 0.6828,0.0976 0.21366,0.065 0.40411,0.15793 0.57133,0.28334 0.16722,0.12542 0.30657,0.2787 0.41805,0.4645 0.11147,0.18579 0.18579,0.39946 0.21831,0.64565 h -0.61313 c -0.0696,-0.32515 -0.21832,-0.56669 -0.45521,-0.72926 z"
     inkscape:connector-curvature="0"
     style="fill:#ffffff;stroke-width:0.53551996" />
  <path
     id="path828"
     d="m 132.24521,313.53897 v 4.58921 h -0.61313 v -4.58921 z"
     inkscape:connector-curvature="0"
     style="fill:#ffffff;stroke-width:0.53551996" />
  <path
     id="path830"
     d="m 135.19941,313.53897 1.79759,4.58921 h -0.67352 l -0.50165,-1.37955 h -1.9416 l -0.51558,1.37955 h -0.62242 l 1.7883,-4.58921 z m 0.42268,2.69407 -0.76641,-2.14132 h -0.0139 l -0.78035,2.14132 z"
     inkscape:connector-curvature="0"
     style="fill:#ffffff;stroke-width:0.53551996" />
  <path
     id="path832"
     d="m 138.05604,313.53897 v 4.07362 H 140.49 v 0.51559 h -3.04244 v -4.58921 z"
     inkscape:connector-curvature="0"
     style="fill:#ffffff;stroke-width:0.53551996" />
  <path
     id="path834"
     d="m 142.701,316.0844 v 0.51559 h -1.85798 v -0.51559 z"
     inkscape:connector-curvature="0"
     style="fill:#ffffff;stroke-width:0.53551996" />
  <path
     id="path836"
     d="m 146.90468,313.53897 v 0.85002 h -2.42466 v 0.98474 h 2.22493 v 0.78499 h -2.22493 v 1.12408 h 2.47575 v 0.85002 h -3.48836 v -4.58921 h 3.43727 z m -1.59786,-1.54678 -0.68281,1.13802 h 0.63636 l 1.04975,-1.13802 z"
     inkscape:connector-curvature="0"
     style="fill:#ffffff;stroke-width:0.53551996" />
  <path
     id="path838"
     d="m 150.58348,314.76059 c -0.0604,-0.0975 -0.1347,-0.18115 -0.22295,-0.25548 -0.0883,-0.0743 -0.19045,-0.13005 -0.30657,-0.17186 -0.11613,-0.0418 -0.23225,-0.0604 -0.35767,-0.0604 -0.2276,0 -0.42268,0.0418 -0.58061,0.13006 -0.15793,0.0883 -0.28799,0.20438 -0.38553,0.35302 -0.0976,0.14863 -0.17187,0.31585 -0.21367,0.50629 -0.0465,0.19045 -0.0696,0.38553 -0.0696,0.58527 0,0.19044 0.0232,0.38089 0.0696,0.56204 0.0464,0.18115 0.11612,0.34373 0.21367,0.49237 0.0975,0.14863 0.2276,0.26011 0.38553,0.34837 0.15793,0.0883 0.35301,0.13005 0.58061,0.13005 0.30657,0 0.54811,-0.0929 0.72462,-0.28334 0.17186,-0.19044 0.2787,-0.43662 0.3205,-0.74784 h 0.98008 c -0.0279,0.28799 -0.0929,0.54811 -0.19973,0.77571 -0.10683,0.23225 -0.25083,0.42734 -0.42269,0.58991 -0.17651,0.16257 -0.38089,0.28798 -0.61778,0.3716 -0.23689,0.0836 -0.49701,0.13005 -0.78035,0.13005 -0.35302,0 -0.66887,-0.0604 -0.94757,-0.18115 -0.2787,-0.12077 -0.52023,-0.28798 -0.71068,-0.5063 -0.19508,-0.21367 -0.33908,-0.4645 -0.44591,-0.75713 -0.10219,-0.28799 -0.15329,-0.59919 -0.15329,-0.93363 0,-0.34373 0.0511,-0.65958 0.15329,-0.95221 0.10219,-0.29264 0.25083,-0.54811 0.44591,-0.76643 0.19509,-0.2183 0.43198,-0.39017 0.71068,-0.51558 0.2787,-0.12541 0.5992,-0.1858 0.94757,-0.1858 0.25083,0 0.49236,0.0372 0.71533,0.11148 0.22295,0.0743 0.42733,0.18115 0.60383,0.3205 0.17652,0.13935 0.32516,0.31122 0.44127,0.51559 0.11613,0.20437 0.19045,0.44127 0.21832,0.70603 h -0.98008 c -0.0139,-0.10683 -0.0557,-0.21367 -0.11613,-0.31121 z"
     inkscape:connector-curvature="0"
     style="fill:#ffffff;stroke-width:0.53551996" />
  <path
     id="path840"
     d="m 152.3625,314.89993 c 0.10219,-0.29263 0.25083,-0.5481 0.44592,-0.76641 0.19508,-0.21832 0.43197,-0.39017 0.71067,-0.51559 0.2787,-0.12541 0.5992,-0.1858 0.94757,-0.1858 0.35766,0 0.67352,0.0604 0.95222,0.1858 0.27869,0.12542 0.51558,0.29727 0.70603,0.51559 0.19508,0.21831 0.33908,0.47378 0.44591,0.76641 0.10219,0.29264 0.15329,0.61314 0.15329,0.95222 0,0.33444 -0.0511,0.64565 -0.15329,0.93364 -0.10219,0.28798 -0.25083,0.53881 -0.44591,0.75712 -0.19509,0.21367 -0.42734,0.38089 -0.70603,0.5063 -0.2787,0.12078 -0.59456,0.18115 -0.95222,0.18115 -0.35302,0 -0.66887,-0.0604 -0.94757,-0.18115 -0.2787,-0.12076 -0.52023,-0.28798 -0.71067,-0.5063 -0.19509,-0.21366 -0.33909,-0.46449 -0.44592,-0.75712 -0.10219,-0.28799 -0.15329,-0.5992 -0.15329,-0.93364 0,-0.34372 0.0511,-0.65958 0.15329,-0.95222 z m 0.92434,1.51426 c 0.0465,0.18116 0.11613,0.34372 0.21367,0.49236 0.0976,0.14399 0.2276,0.26012 0.38553,0.34837 0.15793,0.0883 0.35302,0.13007 0.58062,0.13007 0.2276,0 0.41805,-0.0418 0.58062,-0.13007 0.15793,-0.0883 0.28798,-0.20438 0.38553,-0.34837 0.0975,-0.14399 0.17187,-0.3112 0.21367,-0.49236 0.0465,-0.18115 0.0696,-0.3716 0.0696,-0.56204 0,-0.19973 -0.0232,-0.39482 -0.0696,-0.58526 -0.0465,-0.19044 -0.11613,-0.35766 -0.21367,-0.5063 -0.0975,-0.14864 -0.2276,-0.26477 -0.38553,-0.35302 -0.15792,-0.0883 -0.35302,-0.13006 -0.58062,-0.13006 -0.2276,0 -0.42269,0.0418 -0.58062,0.13006 -0.15793,0.0883 -0.28798,0.20438 -0.38553,0.35302 -0.0975,0.14864 -0.17186,0.31586 -0.21367,0.5063 -0.0465,0.19044 -0.0696,0.38553 -0.0696,0.58526 0,0.19509 0.0233,0.38089 0.0696,0.56204 z"
     inkscape:connector-curvature="0"
     style="fill:#ffffff;stroke-width:0.53551996" />
  <path
     id="path842"
     d="m 158.42416,313.53897 v 3.73918 h 2.23887 v 0.85003 h -3.25147 v -4.58921 z"
     inkscape:connector-curvature="0"
     style="fill:#ffffff;stroke-width:0.53551996" />
  <path
     id="path844"
     d="m 161.18326,314.89993 c 0.10219,-0.29263 0.25083,-0.5481 0.44592,-0.76641 0.19508,-0.21832 0.43197,-0.39017 0.71068,-0.51559 0.27869,-0.12541 0.5992,-0.1858 0.94756,-0.1858 0.35767,0 0.67353,0.0604 0.95222,0.1858 0.27869,0.12542 0.51559,0.29727 0.70604,0.51559 0.19508,0.21831 0.33908,0.47378 0.44591,0.76641 0.10219,0.29264 0.15328,0.61314 0.15328,0.95222 0,0.33444 -0.0511,0.64565 -0.15328,0.93364 -0.10219,0.28798 -0.25083,0.53881 -0.44591,0.75712 -0.19509,0.21367 -0.42735,0.38089 -0.70604,0.5063 -0.27869,0.12078 -0.59455,0.18115 -0.95222,0.18115 -0.35301,0 -0.66887,-0.0604 -0.94756,-0.18115 -0.27871,-0.12076 -0.52024,-0.28798 -0.71068,-0.5063 -0.19509,-0.21366 -0.33909,-0.46449 -0.44592,-0.75712 -0.10219,-0.28799 -0.15329,-0.5992 -0.15329,-0.93364 0,-0.34372 0.0511,-0.65958 0.15329,-0.95222 z m 0.92435,1.51426 c 0.0465,0.18116 0.11612,0.34372 0.21366,0.49236 0.0976,0.14399 0.22761,0.26012 0.38553,0.34837 0.15793,0.0883 0.35302,0.13007 0.58062,0.13007 0.22761,0 0.41805,-0.0418 0.58063,-0.13007 0.15792,-0.0883 0.28798,-0.20438 0.38553,-0.34837 0.0975,-0.14399 0.17186,-0.3112 0.21366,-0.49236 0.0465,-0.18115 0.0696,-0.3716 0.0696,-0.56204 0,-0.19973 -0.0232,-0.39482 -0.0696,-0.58526 -0.0465,-0.19044 -0.11612,-0.35766 -0.21366,-0.5063 -0.0976,-0.14864 -0.22761,-0.26477 -0.38553,-0.35302 -0.15793,-0.0883 -0.35302,-0.13006 -0.58063,-0.13006 -0.2276,0 -0.42269,0.0418 -0.58062,0.13006 -0.15792,0.0883 -0.28798,0.20438 -0.38553,0.35302 -0.0975,0.14864 -0.17185,0.31586 -0.21366,0.5063 -0.0465,0.19044 -0.0696,0.38553 -0.0696,0.58526 0.005,0.19509 0.0232,0.38089 0.0696,0.56204 z"
     inkscape:connector-curvature="0"
     style="fill:#ffffff;stroke-width:0.53551996" />
  <path
     id="path846"
     d="m 168.95891,318.09102 c -0.21831,0.0929 -0.44127,0.13934 -0.66423,0.13934 -0.35301,0 -0.66887,-0.0604 -0.94756,-0.18115 -0.27871,-0.12076 -0.52024,-0.28798 -0.71069,-0.5063 -0.19508,-0.21366 -0.33908,-0.46449 -0.44591,-0.75712 -0.10219,-0.28799 -0.15329,-0.5992 -0.15329,-0.93364 0,-0.34372 0.0511,-0.65958 0.15329,-0.95222 0.10219,-0.29263 0.25083,-0.5481 0.44591,-0.76641 0.19509,-0.21832 0.43198,-0.39017 0.71069,-0.51559 0.27869,-0.12541 0.5992,-0.1858 0.94756,-0.1858 0.2369,0 0.4645,0.0372 0.68745,0.10684 0.22296,0.0696 0.41805,0.1765 0.5992,0.31121 0.17652,0.1347 0.32516,0.30656 0.44127,0.50629 0.11613,0.19974 0.1858,0.43199 0.21367,0.6921 h -0.96614 c -0.0604,-0.25547 -0.17652,-0.45056 -0.34837,-0.58061 -0.17187,-0.13006 -0.3809,-0.19509 -0.62244,-0.19509 -0.22759,0 -0.42268,0.0418 -0.58061,0.13005 -0.15793,0.0883 -0.28799,0.20438 -0.38553,0.35302 -0.0976,0.14864 -0.17186,0.31586 -0.21367,0.5063 -0.0465,0.19045 -0.0696,0.38553 -0.0696,0.58527 0,0.19044 0.0232,0.38088 0.0696,0.56204 0.0465,0.18115 0.11612,0.34372 0.21367,0.49236 0.0975,0.144 0.2276,0.26012 0.38553,0.34837 0.15793,0.0883 0.35302,0.13006 0.58061,0.13006 0.33445,0 0.59456,-0.0836 0.77572,-0.25547 0.18115,-0.16722 0.28799,-0.41341 0.3205,-0.7339 h -1.01724 v -0.75249 h 1.93229 v 2.48041 h -0.64564 l -0.10219,-0.52024 c -0.18581,0.24154 -0.38553,0.39947 -0.60385,0.49237 z"
     inkscape:connector-curvature="0"
     style="fill:#ffffff;stroke-width:0.53551996" />
  <path
     id="path848"
     d="m 172.13141,313.53897 v 4.58921 h -1.0126 v -4.58921 z"
     inkscape:connector-curvature="0"
     style="fill:#ffffff;stroke-width:0.53551996" />
  <path
     id="path850"
     d="m 176.45586,313.53897 v 0.85002 h -2.42466 v 0.98474 h 2.22493 v 0.78499 h -2.22493 v 1.12408 h 2.47576 v 0.85002 h -3.48836 v -4.58921 h 3.43726 z"
     inkscape:connector-curvature="0"
     style="fill:#ffffff;stroke-width:0.53551996" />
  <path
     style="fill:#ffffff;stroke-width:0.53551996"
     inkscape:connector-curvature="0"
     d="m 163.28279,309.19129 0.0372,-3.75312 c 1.62109,0.85931 4.134,1.42135 5.80154,1.42135 2.02985,0 2.87523,-0.61777 2.87523,-1.84404 0,-1.25414 -0.97079,-1.62573 -3.27469,-2.18778 -2.52686,-0.61312 -5.66684,-1.33774 -5.66684,-5.44388 0,-3.73919 2.67085,-5.83406 7.30186,-5.83406 2.30854,0 3.86925,0.29728 5.14197,0.62707 l -0.30657,3.29327 c -1.15196,-0.27869 -2.77769,-0.5574 -4.48238,-0.5574 -2.40144,0 -3.23753,0.65495 -3.23753,1.88586 0,1.22162 1.05905,1.70469 3.18179,2.23422 4.31515,1.07763 5.7876,2.60581 5.7876,5.49962 0,3.7299 -3.0796,5.78297 -7.36689,5.78297 -2.1599,0 -4.00394,-0.38089 -5.79225,-1.12408 z"
     id="path854" />
  <path
     id="path856"
     d="m 153.20324,291.62872 c 3.24217,0 6.36358,0.26012 7.84532,2.6337 6.75376,-10.2189 7.32044,-21.92883 7.32044,-21.92883 -14.73843,-2.56865 -24.86443,-0.58526 -31.81792,3.51159 0.19044,0.55275 0.29263,1.1473 0.29263,1.76508 0,0.57598 -0.0883,1.13337 -0.25082,1.6536 0.70603,0.92435 1.12872,2.08559 1.12872,3.34437 0,0.72461 -0.14864,1.42136 -0.40875,2.06701 0.22295,0.0604 0.44591,0.13005 0.65029,0.19973 0.0232,0.0139 0.0511,0.0232 0.079,0.0325 0.009,0.005 0.009,0.005 0.0139,0.009 0.42735,0.16258 0.81752,0.34837 1.17982,0.54811 5.63434,-2.35964 10.0749,-2.61511 10.0749,-2.61511 -2.96812,1.1566 -5.62038,2.58724 -7.99396,4.17581 0.60385,0.60385 0.93364,1.09157 0.99867,1.18911 v 0.005 l 0.009,0.009 c 0.0279,0.0325 0.0418,0.065 0.0557,0.0929 0,0.005 0,0.0185 0.005,0.0232 0.005,0.0326 0.0185,0.0604 0.0185,0.0883 0.009,0.0139 0.009,0.0232 0.0186,0.0372 0.009,0.0743 0.009,0.15793 0,0.23226 -0.009,0.0139 -0.009,0.0232 -0.0186,0.0326 0,0.0279 -0.0139,0.0557 -0.0185,0.0836 -0.005,0.0139 -0.005,0.0185 -0.005,0.0279 -0.0139,0.0232 -0.0325,0.0557 -0.0557,0.0929 0,0 -0.005,0.005 -0.009,0.009 0,0 0,0 0,0.005 -0.0883,0.1347 -0.68745,1.03582 -1.85334,1.94623 -0.52952,0.40876 -1.16588,0.81751 -1.92765,1.15659 -0.0232,0.009 -0.0418,0.0185 -0.0557,0.0233 -0.53881,0.23689 -1.14731,0.44127 -1.81618,0.57132 1.3331,0.95687 2.32247,2.36893 2.74052,4.0086 h 2.73588 c 0.1765,0 0.33908,0.0743 0.46914,0.19044 0.12077,0.12541 0.19044,0.29728 0.19044,0.46914 v 10.41863 c 1.62574,-0.45985 3.14464,-1.02189 4.57064,-1.65825 V 291.6288 Z"
     inkscape:connector-curvature="0"
     style="fill:none;stroke:#ffffff;stroke-width:1.66011202;stroke-miterlimit:4;stroke-dasharray:none;stroke-opacity:1" />
  <path
     id="path860"
     d="m 151.898,310.12493 h -4.53347 v -18.49621 h 5.83871 c 4.48702,0 8.7418,0.49237 8.7418,6.39146 0,5.79226 -4.84933,7.26935 -10.04704,6.66086 z m 0,-15.3237 v 6.73982 c 4.03646,0.24154 5.3928,-0.65958 5.3928,-3.493 0,-2.45717 -1.26344,-3.24682 -3.62771,-3.24682 z"
     inkscape:connector-curvature="0"
     style="fill:#ffffff;stroke-width:0.53551996" />
  <path
     style="fill:#ffffff;stroke-width:0.53551996"
     d="m 128.21308,269.00803 c -2.05307,0 -3.81281,1.28643 -4.51884,3.1026 -0.16257,-0.0185 -0.33059,-0.028 -0.4978,-0.028 -2.6755,0 -4.85861,2.18822 -4.86325,4.90087 0,0.60849 0.11145,1.19325 0.32511,1.74136 -1.25878,0.91505 -2.08962,2.41595 -2.08962,4.10207 0,1.68612 0.83084,3.18623 2.08962,4.10593 -0.0789,0.0279 -0.15722,0.0597 -0.23153,0.083 -0.009,0 -0.0234,3.3e-4 -0.028,0.01 l -0.0183,0.005 c -0.90113,0.33443 -1.65372,0.78949 -2.23434,1.24933 -1.07763,0.83145 -1.62109,1.65374 -1.70469,1.78381 -0.005,0.009 -0.005,0.0137 -0.0145,0.0183 -0.0139,0.0279 -0.0277,0.0562 -0.0463,0.0888 -0.005,0.009 -0.005,0.0225 -0.005,0.0318 -0.0233,0.0232 -0.0227,0.0562 -0.0367,0.0888 v 0.0231 c -0.0186,0.079 -0.0186,0.15759 0,0.24119 v 0.028 c 0.0139,0.0325 0.0134,0.0609 0.0367,0.0888 0,0.009 2.1e-4,0.0187 0.005,0.028 0.0185,0.0279 0.0324,0.0599 0.0463,0.0878 0.009,0.005 0.01,0.005 0.0145,0.0145 0.079,0.13007 0.62706,0.95622 1.70469,1.78767 0.48772,0.38553 1.09085,0.76675 1.81082,1.08726 0.42269,0.18115 0.87352,0.33845 1.36124,0.45921 l -2.30379,0.5856 c -1.23556,0.32979 -2.04815,1.44511 -2.04815,2.67136 0,0.22761 0.0274,0.45948 0.0878,0.69172 0.15328,0.58527 0.47373,1.07288 0.90106,1.42589 -0.69674,0.52023 -1.12874,1.33786 -1.12874,2.23433 0,0.2276 0.0283,0.46448 0.0888,0.70137 0.18581,0.70604 0.62653,1.27311 1.18856,1.64005 -0.43198,0.49701 -0.68689,1.14266 -0.68689,1.83012 0,0.2276 0.0274,0.45982 0.0878,0.70136 0.27405,1.08227 1.15202,1.83865 2.18321,2.01052 -0.0696,0.21832 -0.10227,0.45096 -0.10227,0.68786 0,0.19045 0.0145,0.38068 0.0656,0.57112 0.26012,1.03118 1.18412,1.71917 2.19672,1.71917 0.1858,0 0.37664,-0.0185 0.56244,-0.0743 l 4.47736,-1.13839 c 1.53283,1.13337 3.41893,1.80696 5.472,1.80696 2.70801,-0.004 5.16002,-1.17991 6.85544,-3.06112 h 4.91438 c 0.1765,0 0.33977,-0.074 0.46983,-0.19005 0.12076,-0.12078 0.19005,-0.29718 0.19005,-0.47369 v -11.14853 c 0,-0.17651 -0.0654,-0.3531 -0.18619,-0.47851 -0.12542,-0.11612 -0.29235,-0.19006 -0.46887,-0.19006 h -2.736 c -0.41804,-1.63965 -1.40772,-3.05162 -2.74082,-4.00849 0.67351,-0.13005 1.27779,-0.33423 1.8166,-0.57112 0.0186,-0.005 0.0328,-0.0148 0.056,-0.0241 0.76177,-0.33908 1.39802,-0.747 1.92755,-1.15576 1.16588,-0.91041 1.765,-1.81214 1.85326,-1.94684 v -0.005 l 0.01,-0.009 c 0.0279,-0.0372 0.0411,-0.0703 0.055,-0.0936 0,-0.009 2.1e-4,-0.0131 0.005,-0.027 0.005,-0.0279 0.0183,-0.0561 0.0183,-0.0839 0.009,-0.009 0.0101,-0.0235 0.0193,-0.0328 0.009,-0.0789 0.009,-0.15817 0,-0.2325 -0.009,-0.0139 -0.0101,-0.018 -0.0193,-0.0367 0,-0.0232 -0.0136,-0.0562 -0.0183,-0.0888 -0.005,-0.005 -0.005,-0.0184 -0.005,-0.0231 -0.0139,-0.0279 -0.0318,-0.0601 -0.055,-0.0926 l -0.01,-0.01 v -0.004 c -0.0883,-0.13935 -0.68738,-1.03662 -1.85326,-1.95167 -0.63637,-0.49701 -1.43992,-0.98447 -2.40607,-1.34678 -0.005,-0.005 -0.005,-0.005 -0.0145,-0.01 -0.0279,-0.0139 -0.0503,-0.0179 -0.0781,-0.0318 -0.20903,-0.0696 -0.42727,-0.14396 -0.65024,-0.1997 0.25548,-0.64565 0.40809,-1.34282 0.40809,-2.06744 0,-1.25878 -0.42271,-2.41479 -1.12875,-3.34378 0.16258,-0.52024 0.25084,-1.07758 0.25084,-1.65357 0,-2.5222 -1.70899,-4.64102 -4.02683,-5.25879 -0.641,-1.94623 -2.46688,-3.34379 -4.59891,-3.34379 z m 0.01,1.3188 c 1.33775,0 2.49429,0.75258 3.10742,1.85809 -0.6828,0.0139 -1.32352,0.15787 -1.92272,0.3994 -0.25083,-0.14399 -0.50656,-0.28749 -0.73417,-0.41291 -0.24618,-0.12077 -0.46454,-0.22816 -0.67821,-0.31643 -0.21831,-0.079 -0.39433,-0.14408 -0.66374,-0.1534 -0.26012,0.005 -0.44622,0.0742 -0.65988,0.14857 -0.52953,0.20903 -1.1891,0.59072 -1.83011,0.99947 0.43663,-1.45851 1.78818,-2.5274 3.38141,-2.52279 z m -1.50982,2.95403 -0.0415,1.76548 c -0.45986,-0.26012 -0.79444,-0.68727 -0.95702,-1.19821 0.0743,-0.0419 0.1395,-0.0789 0.20452,-0.12542 0.28335,-0.16257 0.55709,-0.32108 0.79398,-0.44185 z m 1.30529,0.0376 c 0.43199,0.22296 0.9709,0.55276 1.48184,0.87791 -0.29728,0.58526 -0.8597,0.9984 -1.51464,1.09594 z m -4.82562,0.0839 c 0.20438,0 0.39901,0.0176 0.58945,0.0502 0.0232,0.0186 0.0374,0.0282 0.056,0.0328 -0.70604,0.47842 -1.2399,0.85958 -1.24452,0.85958 l -0.0473,0.0328 c -1.26342,1.07298 -2.16405,2.57778 -2.49385,4.28248 l -0.0328,-0.0888 -0.0232,-0.0318 c -0.22761,-0.46913 -0.34827,-0.99873 -0.34827,-1.55612 0,-1.97875 1.57499,-3.5718 3.54445,-3.58112 z m 8.26299,0.0878 c 1.12408,0 2.14138,0.46466 2.88457,1.20785 0.73391,0.74784 1.19338,1.77436 1.19338,2.90773 0,0.20438 -0.009,0.39015 -0.0318,0.57595 -0.35767,-0.26477 -0.74349,-0.48784 -1.16155,-0.65506 l -0.0183,0.056 c -0.44592,-1.25414 -1.2127,-2.35967 -2.216,-3.20969 l -0.0367,-0.0328 c 0,0 -0.49733,-0.35271 -1.16155,-0.79398 0,-0.005 -2.1e-4,-0.005 -0.005,-0.0145 0.18115,-0.0279 0.36235,-0.0415 0.55279,-0.0415 z m -6.86508,1.07279 c 0.5063,1.21697 1.70411,2.06744 3.09295,2.06744 0.2787,0 0.55316,-0.0324 0.81327,-0.0974 -0.31585,0.44591 -0.68279,0.85423 -1.07761,1.21653 -1.4771,-0.46449 -2.7456,-1.39799 -3.64671,-2.62891 0.0464,-0.0325 0.0842,-0.0601 0.13988,-0.0926 0.19045,-0.13006 0.42275,-0.29314 0.67822,-0.465 z m 6.08461,0.59428 c 0.16261,0.45056 0.24601,0.93424 0.24601,1.44518 0,0.49237 -0.0783,0.96129 -0.23154,1.39791 -0.35767,0.0558 -0.72936,0.0839 -1.10559,0.0839 -0.20903,0 -0.42288,-0.009 -0.63191,-0.028 0.75249,-0.84074 1.33286,-1.82141 1.72303,-2.89904 z m 1.54647,1.25416 c 0.77106,1.02654 1.21772,2.30014 1.22233,3.68434 0,1.16123 -0.32517,2.24271 -0.87791,3.16242 -0.63636,0.19973 -1.33843,0.31161 -2.04911,0.31161 -1.54677,0 -2.97249,-0.49711 -4.12909,-1.35643 0.0836,0 0.16698,0.009 0.26917,0.005 2.23422,0 4.16726,-1.33316 5.05909,-3.26082 0.0465,-0.0697 0.079,-0.14893 0.10226,-0.2325 0.26012,-0.65493 0.40326,-1.36994 0.40326,-2.12242 z m -10.04197,0.37239 c 0.16723,4.50561 3.83168,8.10478 8.33728,8.10478 0.23225,0 0.45543,-0.0187 0.68304,-0.028 -1.05441,0.86396 -2.39151,1.38922 -3.86861,1.38922 -1.68612,0 -3.20978,-0.6827 -4.31528,-1.80213 -1.11479,-1.11944 -1.78413,-2.65188 -1.79345,-4.35194 0.005,-1.22162 0.35318,-2.35508 0.95702,-3.31195 z m 1.31494,0.0415 c 1.54678,1.59322 3.70114,2.57757 6.0933,2.57296 h 0.31161 c -0.0836,0.0836 -0.15355,0.16781 -0.23251,0.24215 -0.78035,0.785 -1.83481,1.26306 -3.00998,1.26767 -0.72926,0 -1.40228,-0.18099 -1.99219,-0.49684 -0.6921,-1.04047 -1.11452,-2.26678 -1.17023,-3.58594 z m 11.20352,2.41089 c 1.04047,0.75712 1.71359,1.97827 1.7182,3.37176 0,0.6503 -0.14428,1.25403 -0.40905,1.80213 -0.37624,-0.0511 -0.77963,-0.0781 -1.18373,-0.0781 -0.5156,0 -0.99902,0.0366 -1.46351,0.11094 0.87325,-1.22626 1.38922,-2.73067 1.38922,-4.34711 0,-0.29728 -0.014,-0.58089 -0.0511,-0.85958 z m -14.74797,0.19487 c -0.0186,0.21831 -0.0376,0.43711 -0.0376,0.66471 0,3.04244 1.81154,5.66175 4.41271,6.83228 l -0.11094,0.0839 c -0.83145,-0.30657 -1.80265,-0.50649 -2.89422,-0.50649 -0.11612,0 -0.2181,0.009 -0.32029,0.009 -1.76973,-0.28798 -3.10776,-1.82925 -3.11708,-3.68723 0,-1.41207 0.77157,-2.63893 1.91887,-3.27529 0.0557,-0.0325 0.10679,-0.0741 0.14857,-0.1206 z m 15.17053,6.25248 c 2.75445,0 4.74222,1.5653 5.70836,2.85659 0,0 -1.57872,2.91641 -6.05181,2.91641 0,0.005 -3.79515,0.17713 -5.92254,-2.91641 0,0 1.66284,-2.85659 6.26599,-2.85659 z m -7.75265,1.90826 c 0.11613,0 0.23204,0.042 0.32029,0.10708 0.14864,0.10219 0.24601,0.27939 0.24601,0.46983 v 4.92307 l -1.1326,1.28696 v -6.20617 c 0,-0.3205 0.25509,-0.58077 0.5663,-0.58077 z m -5.84825,0.26048 c 1.95552,0 3.31207,0.90093 3.96701,1.32362 v 2.51797 c -0.34372,0.23689 -1.69506,1.37958 -4.02682,1.37958 0,0.005 -3.47425,0.23712 -5.61093,-2.60094 0,0 1.70395,-2.62023 5.67074,-2.62023 z m 11.05495,4.80343 c 0.18115,0 0.36761,0.004 0.54411,0.0318 0.19509,0.0326 0.39009,0.0606 0.59911,0.0791 1.12872,0.2276 2.1314,0.79429 2.9164,1.57928 1.04512,1.0544 1.68154,2.49473 1.68154,4.09724 v 4.46385 c 0,0.62707 -0.0739,1.23502 -0.2132,1.81564 -0.4645,1.22163 -1.63008,2.09059 -3.00034,2.09059 -1.77437,0 -3.21452,-1.44471 -3.21452,-3.23766 v -0.23251 -0.005 -6.54865 c 0,-0.36231 -0.28828,-0.65506 -0.65988,-0.65506 -0.35765,0 -0.64541,0.29275 -0.64541,0.65506 v 6.54865 c -0.005,1.57464 -1.27255,2.84327 -2.82861,2.84791 -0.32515,0 -0.6322,-0.056 -0.91554,-0.15821 v -7.58478 c 0,-1.27737 0.41313,-2.45271 1.09594,-3.41422 0.17652,-0.23689 0.37658,-0.46936 0.5856,-0.68303 0.22296,-0.2276 0.46923,-0.43181 0.72934,-0.62226 0.93828,-0.67816 2.08061,-1.06797 3.32546,-1.06797 z m -8.46752,1.65743 c 0.62707,0 1.212,0.4281 1.36993,1.07375 0.0139,0.0139 0.0145,0.0227 0.0145,0.0367 0.0279,0.10684 0.0328,0.21811 0.0328,0.3203 0,0.11612 -0.01,0.2231 -0.0376,0.32994 -0.12076,0.50165 -0.5016,0.91994 -1.02648,1.05928 l -0.94737,0.24119 c -0.0465,0.0139 -0.0888,0.0235 -0.13989,0.0328 l -5.42473,1.39309 c -0.0975,0.0139 -0.17187,0.028 -0.25083,0.028 -0.62707,0 -1.21254,-0.43178 -1.3844,-1.07279 -0.0279,-0.13005 -0.0376,-0.25029 -0.0376,-0.36178 0,-0.63635 0.42793,-1.222 1.06893,-1.38922 l 6.40491,-1.64392 c 0.12541,-0.0326 0.24644,-0.0473 0.35792,-0.0473 z m 15.50915,3.66986 h 1.87256 v 9.82877 h -0.005 -3.26082 c 0.5063,-0.82215 0.89668,-1.72335 1.13357,-2.68487 0,0 2.1e-4,-0.005 0.005,-0.01 0.0139,-0.0511 0.0224,-0.10212 0.027,-0.14857 0.15327,-0.65958 0.23732,-1.34712 0.23732,-2.05779 v -4.46385 c 0,-0.15793 -0.005,-0.31075 -0.01,-0.46404 z m -15.5323,0.65024 c 0.62242,0 1.20349,0.42232 1.36607,1.06797 0.0279,0.0836 0.0276,0.17705 0.0415,0.2653 0,0.0279 0.01,0.0695 0.01,0.0974 -0.005,0.0465 -0.0145,0.0925 -0.0145,0.13892 -0.065,0.58062 -0.45465,1.09238 -1.06314,1.2503 l -1.04095,0.26434 -5.472,1.40756 c -0.12077,0.0325 -0.24101,0.0415 -0.36178,0.0415 -0.62242,0 -1.19903,-0.41749 -1.3709,-1.06314 -0.0279,-0.13006 -0.0367,-0.24662 -0.0367,-0.36275 0,-0.63635 0.4181,-1.21735 1.05446,-1.38922 l 0.99851,-0.25469 c 0.065,-0.009 0.12967,-0.0239 0.19005,-0.0424 l 5.38807,-1.38826 c 0.10683,-0.0185 0.20479,-0.0328 0.31161,-0.0328 z m -0.005,4.3201 c 0.62242,0 1.20349,0.42697 1.36607,1.06797 0.0279,0.12541 0.0418,0.24215 0.0511,0.36756 -0.009,0.62707 -0.42793,1.217 -1.06893,1.37958 v -9.9e-4 l -5.92157,1.52429 c -0.12542,0.0326 -0.25592,0.0463 -0.36275,0.0463 -0.63171,0 -1.21217,-0.42231 -1.37475,-1.06796 -0.0326,-0.12078 -0.0511,-0.24663 -0.0511,-0.36274 0,-0.63637 0.42678,-1.21719 1.06314,-1.3844 l 0.45536,-0.11577 c 0,-0.004 0.0145,-0.005 0.0145,-0.005 l 5.45753,-1.40274 c 0.13007,-0.0279 0.2553,-0.0463 0.37143,-0.0463 z m 7.04645,2.79582 c 0.76643,1.42136 2.26268,2.38773 3.97666,2.38773 0.5063,0 0.99787,-0.0832 1.45772,-0.24119 -0.19044,0.22296 -0.38043,0.43638 -0.58946,0.64541 -1.43992,1.43994 -3.43226,2.3366 -5.6061,2.3366 -1.54677,0 -2.97367,-0.44161 -4.186,-1.21268 0.37159,-0.4134 0.60007,-0.96585 0.60007,-1.54647 0,-0.1858 -0.0185,-0.38148 -0.0743,-0.56727 v -0.009 c -0.0186,-0.065 -0.0374,-0.12134 -0.056,-0.19102 0.35302,0.10219 0.72935,0.15822 1.10559,0.15822 1.38884,0 2.62393,-0.69695 3.37176,-1.76065 z m -6.6239,1.40273 c 0.43198,0 0.83168,0.29254 0.93387,0.72452 0.0233,0.079 0.0328,0.16801 0.0328,0.24697 0.005,0.42734 -0.28307,0.8216 -0.71969,0.93773 l -4.65005,1.18952 c -0.0883,0.0279 -0.16704,0.0319 -0.24601,0.0319 -0.42733,0 -0.81774,-0.2871 -0.93386,-0.72838 -0.0279,-0.0836 -0.028,-0.16335 -0.028,-0.24697 0,-0.42733 0.2786,-0.8216 0.72452,-0.93773 l 4.64522,-1.18469 c 0.0975,-0.0186 0.16687,-0.0328 0.24118,-0.0328 z"
     id="path864"
     inkscape:connector-curvature="0" />
</svg>
